<svg width="37" height="60" viewBox="0 0 37 60" fill="none" xmlns="http://www.w3.org/2000/svg">
<path d="M17.9567 25.6977L8.97836 25.8861L9.17766 34.2967L18.156 34.138L18.3553 42.5783L9.37696 42.7667L9.17766 34.3264L0.199292 34.5149L-5.72643e-06 26.0746L8.97836 25.8861L8.77906 17.4458L17.7574 17.2574L17.9567 25.6977ZM26.5365 8.62871L17.5581 8.81713L17.7574 17.2574L26.7358 17.069L26.5365 8.62871ZM26.5365 8.62871L35.5149 8.4403L35.3156 -1.64147e-07L26.3372 0.188415L26.5365 8.62871ZM27.533 50.8302L18.5546 51.0186L18.3553 42.5783L27.3337 42.3899L27.533 50.8302ZM27.533 50.8302L36.5114 50.6418L36.7107 59.0821L27.7323 59.2705L27.533 50.8302Z" fill="#606060"/>
</svg>
