<svg width="37" height="60" viewBox="0 0 37 60" fill="none" xmlns="http://www.w3.org/2000/svg">
<path d="M18.7583 33.5715L27.7367 33.3819L27.5363 24.9714L18.5579 25.1312L18.3575 16.6909L27.3359 16.5013L27.5363 24.9416L36.5146 24.752L36.715 33.1923L27.7367 33.3819L27.9371 41.8222L18.9587 42.0118L18.7583 33.5715ZM10.1808 50.6416L19.1591 50.452L18.9587 42.0118L9.98039 42.2014L10.1808 50.6416ZM10.1808 50.6416L1.20246 50.8312L1.40287 59.2715L10.3812 59.0819L10.1808 50.6416ZM9.17876 8.44027L18.1571 8.25067L18.3575 16.6909L9.37917 16.8805L9.17876 8.44027ZM9.17876 8.44027L0.200416 8.62986L6.79582e-06 0.189593L8.97835 -3.97532e-06L9.17876 8.44027Z" fill="#606060"/>
</svg>
