<svg width="59" height="59" viewBox="0 0 59 59" fill="none" xmlns="http://www.w3.org/2000/svg">
<path d="M29.4999 0C13.2076 0 0 13.2076 0 29.5C0 45.7924 13.2076 59 29.4999 59C45.7922 59 58.9998 45.7923 58.9998 29.4999C58.9998 13.2076 45.7922 5.212e-05 29.4999 0ZM32.6867 45.1011C31.287 45.2602 29.8781 45.3232 28.47 45.2897L18.6531 45.2898V12.2449H23.2614V37.17C24.2662 37.6064 25.3228 37.9135 26.4052 38.084C27.6453 38.3185 28.9049 38.4399 30.1675 38.4467C33.1462 38.4467 35.5208 37.6101 37.2908 35.9368C39.0608 34.2635 39.9489 32.0164 39.9556 29.1953C39.9556 26.5645 39.2109 24.4108 37.7215 22.7344C36.2826 21.0757 34.1753 20.1508 31.9808 20.2147C30.1637 20.2211 28.3933 20.7942 26.9173 21.8542V12.2449H28.7119C30.1183 12.2107 31.5259 12.2753 32.9236 12.4384C40.589 13.4056 45.9815 18.5221 45.9815 28.3974C46.0007 38.113 40.3471 44.1436 32.6867 45.106V45.1011Z" fill="white"/>
</svg>
