<svg width="53" height="59" viewBox="0 0 53 59" fill="none" xmlns="http://www.w3.org/2000/svg">
<path d="M26.707 0.0317666L26.5959 0L26.4849 0.0317666L0.0966914 6.88668L0.00148835 22.1197C-0.0461151 27.0864 1.04875 31.9895 3.20677 36.4483C4.50793 39.0824 6.0471 41.5896 7.80843 43.938C13.0924 51.015 19.7252 55.9817 26.1199 58.2508C26.1516 58.2825 26.1834 58.2825 26.231 58.2825C26.2627 58.2825 26.3103 58.2825 26.3421 58.2508C32.7686 56.0769 39.4648 51.1896 44.8281 44.1761C46.6211 41.8435 48.192 39.3522 49.5091 36.7498C51.7306 32.3068 52.8889 27.4196 52.9048 22.4688L53 7.23572L26.707 0.0317666ZM40.0201 35.0203L26.4055 42.7003L12.9338 34.7506L13.0924 19.1366L26.7229 11.4724L40.1947 19.4063L40.036 35.0203H40.0201Z" fill="white"/>
<path d="M14.998 20.2483L14.8711 33.6566L26.4387 40.4797L38.1333 33.8946L38.2602 20.4862L26.6926 13.6631L14.998 20.2483ZM32.5478 34.9101L29.3108 34.9419L27.6606 32.165C27.7082 32.0381 27.7399 31.8953 27.7399 31.7524C27.7399 31.5938 27.7399 31.4192 27.6764 31.2764C27.6288 31.1177 27.5336 30.9749 27.4225 30.8638C27.3115 30.7369 27.1845 30.6417 27.0258 30.5782C26.883 30.5148 26.7085 30.4672 26.5498 30.4672C26.3911 30.4672 26.2166 30.4989 26.0738 30.5624C25.9151 30.6258 25.7881 30.721 25.6612 30.8321C25.5501 30.9432 25.4549 31.086 25.3915 31.2447C25.328 31.4033 25.2962 31.562 25.3121 31.7207C25.3121 31.8159 25.3121 31.8952 25.3439 31.9904L23.7571 34.8308L20.52 34.8625L18.8698 32.0698L20.4565 29.2612L23.6936 29.2294C23.6936 29.2294 23.7412 29.277 23.8205 29.3564C23.9475 29.4833 24.1062 29.5944 24.2807 29.6579C24.4552 29.7213 24.6457 29.753 24.8202 29.7213C25.0106 29.7054 25.1852 29.642 25.328 29.5468C25.4867 29.4516 25.6136 29.3247 25.7088 29.166C25.804 29.0073 25.8675 28.8327 25.8834 28.6582C25.8992 28.4678 25.8834 28.2932 25.8199 28.1186C25.7564 27.9441 25.6612 27.7855 25.5184 27.6585C25.3914 27.5316 25.2169 27.4364 25.0424 27.3888C24.9789 27.3571 24.9313 27.3253 24.8678 27.3095L23.3128 24.485L25.0106 21.724L28.2477 21.7874L29.8027 24.6278L28.1048 27.3888H28.0096C27.851 27.4523 27.6923 27.5475 27.5812 27.6744C27.4543 27.8013 27.3749 27.9441 27.3115 28.1186C27.248 28.2773 27.2321 28.4519 27.248 28.6264C27.2638 28.801 27.3273 28.9597 27.4067 29.1183C27.5019 29.2611 27.6129 29.404 27.7558 29.4992C27.8986 29.5944 28.0573 29.6579 28.2318 29.6896C28.4064 29.7214 28.5809 29.7055 28.7554 29.6579C28.93 29.6103 29.0728 29.5309 29.2156 29.4198V29.3882L32.4526 29.3564L34.1029 32.1333L32.5161 34.9419L32.5478 34.9101ZM35.8166 20.0579L17.6797 19.9468L26.7402 14.8849L35.8166 20.0737V20.0579Z" fill="white"/>
</svg>
