<svg width="29" height="22" viewBox="0 0 29 22" fill="none" xmlns="http://www.w3.org/2000/svg">
<g clip-path="url(#clip0_7_2)">
<path d="M0 0H29V22H0" fill="#BD3D44"/>
<path d="M0 2.53458H29ZM0 5.91249H29ZM0 9.30416H29ZM0 12.6958H29ZM0 16.0875H29ZM0 19.4792H29Z" fill="black"/>
<path d="M0 1.68668V3.38251H29V1.68668H0ZM0 5.06459V6.76043H29V5.06459H0ZM0 8.45626V10.1521H29V8.45626H0ZM0 11.8479V13.5438H29V11.8479H0ZM0 15.2396V16.9354H29V15.2396H0ZM0 18.6313V20.3271H29V18.6313H0Z" fill="white"/>
<path d="M0 0H16.53V11.8479H0" fill="#192F5D"/>
<path d="M15.1344 9.99168L15.5422 11.2292L14.5 10.45H15.7688L14.7266 11.2292L15.1344 9.99168ZM12.4156 9.99168L12.8234 11.2292L11.7813 10.45H13.05L12.0078 11.2292L12.4156 9.99168ZM9.65156 9.99168L10.0594 11.2292L9.01719 10.45H10.2859L9.24375 11.2292L9.65156 9.99168ZM6.8875 9.99168L7.29531 11.2292L6.25313 10.45H7.52188L6.47969 11.2292L6.8875 9.99168ZM4.12344 9.99168L4.53125 11.2292L3.48906 10.45H4.75781L3.71562 11.2292L4.12344 9.99168ZM1.35937 9.99168L1.76719 11.2292L0.724998 10.45H1.99375L0.951561 11.2292L1.35937 9.99168ZM13.775 8.80002L14.1828 10.0375L13.1406 9.25835H14.4094L13.3672 10.0375L13.775 8.80002ZM11.0109 8.80002L11.4188 10.0375L10.3766 9.25835H11.6453L10.6031 10.0375L11.0109 8.80002ZM8.29219 8.80002L8.7 10.0375L7.65781 9.25835H8.92656L7.88438 10.0375L8.29219 8.80002ZM5.52813 8.80002L5.93594 10.0375L4.89375 9.25835H6.1625L5.12031 10.0375L5.52813 8.80002ZM2.76406 8.80002L3.17187 10.0375L2.12969 9.25835H3.39844L2.35625 10.0375L2.76406 8.80002ZM15.1344 7.60835L15.5422 8.84585L14.5 8.06668H15.7688L14.7266 8.84585L15.1344 7.60835ZM12.4156 7.60835L12.8234 8.84585L11.7813 8.06668H13.05L12.0078 8.84585L12.4156 7.60835ZM9.65156 7.60835L10.0594 8.84585L9.01719 8.06668H10.2859L9.24375 8.84585L9.65156 7.60835ZM6.8875 7.60835L7.29531 8.84585L6.25313 8.06668H7.52188L6.47969 8.84585L6.8875 7.60835ZM4.12344 7.60835L4.53125 8.84585L3.48906 8.06668H4.75781L3.71562 8.84585L4.12344 7.60835ZM1.35937 7.60835L1.76719 8.84585L0.724998 8.06668H1.99375L0.951561 8.84585L1.35937 7.60835ZM13.775 6.46252L14.1828 7.70002L13.1406 6.92085H14.4094L13.3672 7.70002L13.775 6.46252ZM11.0109 6.46252L11.4188 7.70002L10.3766 6.92085H11.6453L10.6031 7.70002L11.0109 6.46252ZM8.29219 6.46252L8.7 7.70002L7.65781 6.92085H8.92656L7.88438 7.70002L8.29219 6.46252ZM5.52813 6.46252L5.93594 7.70002L4.89375 6.92085H6.1625L5.12031 7.70002L5.52813 6.46252ZM2.76406 6.46252L3.17187 7.70002L2.12969 6.92085H3.39844L2.35625 7.70002L2.76406 6.46252ZM15.1344 5.27085L15.5422 6.50835L14.5 5.72918H15.7688L14.7266 6.50835L15.1344 5.27085ZM12.4156 5.27085L12.8234 6.50835L11.7813 5.72918H13.05L12.0078 6.50835L12.4156 5.27085ZM9.65156 5.27085L10.0594 6.50835L9.01719 5.72918H10.2859L9.24375 6.50835L9.65156 5.27085ZM6.8875 5.27085L7.29531 6.50835L6.25313 5.72918H7.52188L6.47969 6.50835L6.8875 5.27085ZM4.12344 5.27085L4.53125 6.50835L3.48906 5.72918H4.75781L3.71562 6.50835L4.12344 5.27085ZM1.35937 5.27085L1.76719 6.50835L0.724998 5.72918H1.99375L0.951561 6.50835L1.35937 5.27085ZM13.775 4.07918L14.1828 5.31668L13.1406 4.53752H14.4094L13.3672 5.31668L13.775 4.07918ZM11.0109 4.07918L11.4188 5.31668L10.3766 4.53752H11.6453L10.6031 5.31668L11.0109 4.07918ZM8.29219 4.07918L8.7 5.31668L7.65781 4.53752H8.92656L7.88438 5.31668L8.29219 4.07918ZM5.52813 4.07918L5.93594 5.31668L4.89375 4.53752H6.1625L5.12031 5.31668L5.52813 4.07918ZM2.76406 4.07918L3.17187 5.31668L2.12969 4.53752H3.39844L2.35625 5.31668L2.76406 4.07918ZM15.1344 2.88751L15.5422 4.12502L14.5 3.34585H15.7688L14.7266 4.12502L15.1344 2.88751ZM12.4156 2.88751L12.8234 4.12502L11.7813 3.34585H13.05L12.0078 4.12502L12.4156 2.88751ZM9.65156 2.88751L10.0594 4.12502L9.01719 3.34585H10.2859L9.24375 4.12502L9.65156 2.88751ZM6.8875 2.88751L7.29531 4.12502L6.25313 3.34585H7.52188L6.47969 4.12502L6.8875 2.88751ZM4.12344 2.88751L4.53125 4.12502L3.48906 3.34585H4.75781L3.71562 4.12502L4.12344 2.88751ZM1.35937 2.88751L1.76719 4.12502L0.724998 3.34585H1.99375L0.951561 4.12502L1.35937 2.88751ZM13.775 1.69585L14.1828 2.93335L13.1406 2.15418H14.4094L13.3672 2.93335L13.775 1.69585ZM11.0109 1.69585L11.4188 2.93335L10.3766 2.15418H11.6453L10.6031 2.93335L11.0109 1.69585ZM8.29219 1.69585L8.7 2.93335L7.65781 2.15418H8.92656L7.88438 2.93335L8.29219 1.69585ZM5.52813 1.69585L5.93594 2.93335L4.89375 2.15418H6.1625L5.12031 2.93335L5.52813 1.69585ZM2.76406 1.69585L3.17187 2.93335L2.12969 2.15418H3.39844L2.35625 2.93335L2.76406 1.69585ZM15.1344 0.504181L15.5422 1.74168L14.5 0.962514H15.7688L14.7266 1.74168L15.1344 0.504181ZM12.4156 0.504181L12.8234 1.74168L11.7813 0.962514H13.05L12.0078 1.74168L12.4156 0.504181ZM9.65156 0.504181L10.0594 1.74168L9.01719 0.962514H10.2859L9.24375 1.74168L9.65156 0.504181ZM6.8875 0.504181L7.29531 1.74168L6.25313 0.962514H7.52188L6.47969 1.74168L6.8875 0.504181ZM4.12344 0.504181L4.53125 1.74168L3.48906 0.962514H4.75781L3.71562 1.74168L4.12344 0.504181ZM1.35937 0.504181L1.76719 1.74168L0.724998 0.962514H1.99375L0.951561 1.74168L1.35937 0.504181Z" fill="white"/>
</g>
<defs>
<clipPath id="clip0_7_2">
<rect width="29" height="22" fill="white"/>
</clipPath>
</defs>
</svg>
