<svg width="29" height="22" viewBox="0 0 29 22" fill="none" xmlns="http://www.w3.org/2000/svg">
<g clip-path="url(#clip0_7_28)">
<path d="M0 0H29V22H0V0Z" fill="#012169"/>
<path d="M3.39844 0L14.4547 8.29583L25.4656 0H29V2.84167L18.125 11.0458L29 19.2042V22H25.375L14.5 13.7958L3.67031 22H0V19.25L10.8297 11.0917L0 2.93333V0H3.39844Z" fill="white"/>
<path d="M19.2125 12.8792L29 20.1667V22L16.7203 12.8792H19.2125ZM10.875 13.7958L11.1469 15.4L2.44688 22H0L10.875 13.7958ZM29 0V0.1375L17.7172 8.75417L17.8078 6.7375L26.7344 0H29ZM0 0L10.8297 8.06667H8.11094L0 1.925V0Z" fill="#C8102E"/>
<path d="M10.9203 0V22H18.1703V0H10.9203ZM0 7.33333V14.6667H29V7.33333H0Z" fill="white"/>
<path d="M0 8.84583V13.2458H29V8.84583H0ZM12.3703 0V22H16.7203V0H12.3703Z" fill="#C8102E"/>
</g>
<defs>
<clipPath id="clip0_7_28">
<rect width="29" height="22" fill="white"/>
</clipPath>
</defs>
</svg>
