<svg width="212" height="71" viewBox="0 0 212 71" fill="none" xmlns="http://www.w3.org/2000/svg">
<path d="M23.5903 14.0281L23.4922 14L23.3941 14.0281L0.0854075 20.083L0.00131466 33.5384C-0.0407335 37.9254 0.926358 42.2563 2.83254 46.1948C3.98185 48.5215 5.3414 50.736 6.89718 52.8104C11.5645 59.0616 17.4232 63.4486 23.0717 65.4529C23.0997 65.4809 23.1278 65.4809 23.1698 65.4809C23.1979 65.4809 23.2399 65.4809 23.268 65.4529C28.9444 63.5327 34.8592 59.2158 39.5966 53.0207C41.1804 50.9603 42.568 48.7597 43.7313 46.4611C45.6936 42.5366 46.7168 38.2197 46.7308 33.8467L46.8149 20.3913L23.5903 14.0281ZM35.3498 44.9334L23.324 51.7171L11.4244 44.6952L11.5645 30.9033L23.6043 24.1336L35.5039 31.1416L35.3638 44.9334H35.3498Z" fill="white"/>
<path d="M13.2488 31.8851L13.1367 43.7286L23.3544 49.7555L33.6842 43.9388L33.7963 32.0952L23.5787 26.0684L13.2488 31.8851ZM28.7506 44.8359L25.8913 44.8639L24.4336 42.4111C24.4757 42.299 24.5037 42.1728 24.5037 42.0467C24.5037 41.9065 24.5037 41.7524 24.4477 41.6262C24.4056 41.4861 24.3215 41.3599 24.2234 41.2618C24.1253 41.1497 24.0132 41.0656 23.873 41.0095C23.7469 40.9534 23.5927 40.9114 23.4525 40.9114C23.3123 40.9114 23.1582 40.9394 23.032 40.9955C22.8919 41.0515 22.7797 41.1356 22.6676 41.2337C22.5695 41.3318 22.4854 41.458 22.4294 41.5982C22.3733 41.7383 22.3452 41.8785 22.3593 42.0186C22.3593 42.1027 22.3593 42.1728 22.3873 42.2569L20.9857 44.7658L18.1264 44.7938L16.6687 42.327L18.0703 39.8462L20.9296 39.8181C20.9296 39.8181 20.9717 39.8602 21.0417 39.9302C21.1539 40.0424 21.294 40.1405 21.4482 40.1966C21.6024 40.2526 21.7706 40.2806 21.9248 40.2526C22.093 40.2386 22.2471 40.1825 22.3733 40.0984C22.5134 40.0143 22.6256 39.9022 22.7097 39.7621C22.7938 39.6219 22.8498 39.4677 22.8639 39.3135C22.8779 39.1453 22.8638 38.9911 22.8078 38.837C22.7517 38.6828 22.6676 38.5426 22.5415 38.4305C22.4293 38.3184 22.2752 38.2343 22.121 38.1923C22.0649 38.1642 22.0229 38.1362 21.9668 38.1222L20.5933 35.6273L22.0929 33.1885L24.9522 33.2446L26.3258 35.7535L24.8261 38.1923H24.742C24.6018 38.2483 24.4617 38.3324 24.3636 38.4445C24.2515 38.5567 24.1814 38.6828 24.1253 38.837C24.0692 38.9771 24.0552 39.1313 24.0692 39.2855C24.0832 39.4397 24.1393 39.5798 24.2094 39.72C24.2935 39.8461 24.3916 39.9723 24.5177 40.0564C24.6439 40.1405 24.7841 40.1966 24.9382 40.2246C25.0924 40.2526 25.2466 40.2386 25.4008 40.1966C25.5549 40.1545 25.6811 40.0844 25.8072 39.9863V39.9583L28.6665 39.9302L30.1242 42.3831L28.7225 44.8639L28.7506 44.8359ZM31.6379 31.7169L15.6175 31.6187L23.6207 27.1476L31.6379 31.7309V31.7169Z" fill="white"/>
<path d="M62.6212 33.3276H56.1738V30.2441H72.6567V33.3276H66.2233V49.8666H62.6212V33.3276Z" fill="white"/>
<path d="M87.4027 43.5032H75.7834C75.9656 44.5404 76.5403 45.4655 77.3812 46.0822C78.3203 46.755 79.4416 47.0914 80.5769 47.0493C81.3197 47.0774 82.0626 46.9372 82.7634 46.6568C83.4502 46.3765 84.0809 45.956 84.6135 45.4234L86.4636 47.5819C85.7909 48.3949 84.9218 49.0256 83.9407 49.404C82.6933 49.8665 81.3618 50.0768 80.0303 50.0067C78.6987 49.9506 77.3952 49.6142 76.1898 49.0396C74.9985 48.4229 73.9893 47.4838 73.3166 46.3064C72.6298 45.1011 72.2794 43.7275 72.2934 42.3399C72.2794 40.9663 72.6158 39.6067 73.2745 38.4014C73.9193 37.2521 74.8583 36.299 76.0076 35.6683C77.213 35.0096 78.5726 34.6591 79.9462 34.6872C81.3057 34.6591 82.6372 34.9955 83.8286 35.6543C84.9499 36.285 85.8749 37.2241 86.4916 38.3734C87.1504 39.6208 87.4868 41.0084 87.4447 42.424C87.4728 42.7044 87.4448 43.0407 87.3887 43.5032H87.4027ZM77.157 38.5275C76.3861 39.2003 75.8815 40.1534 75.7554 41.1766H84.165C84.0528 40.1534 83.5623 39.2143 82.8054 38.5416C82.0065 37.8968 81.0114 37.5324 79.9742 37.5324C78.937 37.5324 77.9559 37.8828 77.143 38.5416L77.157 38.5275Z" fill="white"/>
<path d="M93.4465 49.0828C92.2551 48.452 91.274 47.513 90.5872 46.3496C89.8864 45.1442 89.536 43.7706 89.5641 42.3831C89.536 40.9955 89.9005 39.6359 90.5872 38.4305C91.26 37.2672 92.2552 36.3281 93.4325 35.7114C94.708 35.0386 96.1376 34.7022 97.5812 34.7303C98.9128 34.7022 100.23 35.0106 101.422 35.6273C102.501 36.202 103.37 37.1131 103.916 38.2063L101.253 39.7761C100.861 39.1173 100.314 38.5847 99.6416 38.2063C98.9969 37.8559 98.268 37.6737 97.5392 37.6877C96.9505 37.6877 96.3618 37.7858 95.8152 38.0101C95.2686 38.2343 94.764 38.5707 94.3435 38.9912C93.5306 39.9303 93.0821 41.1497 93.0821 42.3971C93.0821 43.6445 93.5306 44.8639 94.3435 45.803C95.0443 46.4617 95.9273 46.8822 96.8804 47.0083C97.8335 47.1345 98.7866 46.9803 99.6416 46.5458C100.3 46.1814 100.847 45.6488 101.239 44.99L103.902 46.5598C103.342 47.6671 102.473 48.5641 101.394 49.1388C100.216 49.7695 98.8847 50.0918 97.5532 50.0498C96.1236 50.0638 94.7219 49.7275 93.4465 49.0687V49.0828Z" fill="white"/>
<path d="M119.671 36.3846C120.82 37.4919 121.394 39.1317 121.394 41.2902V49.8681H117.933V41.7387C118.003 40.6735 117.666 39.6223 116.993 38.7954C116.657 38.445 116.237 38.1787 115.788 38.0105C115.34 37.8423 114.849 37.7582 114.372 37.8002C113.812 37.7722 113.265 37.8563 112.733 38.0525C112.214 38.2487 111.737 38.5571 111.345 38.9636C110.546 39.8886 110.154 41.094 110.238 42.3134V49.882H106.762V29.1104H110.238V36.6509C110.826 36.0202 111.555 35.5437 112.354 35.2354C113.251 34.899 114.218 34.7307 115.171 34.7447C115.998 34.7027 116.811 34.8289 117.596 35.1092C118.367 35.3895 119.082 35.838 119.685 36.3986L119.671 36.3846Z" fill="white"/>
<path d="M142.43 41.4429C143.075 42.34 143.411 43.4332 143.369 44.5404C143.411 45.3113 143.243 46.0682 142.906 46.755C142.57 47.4418 142.065 48.0304 141.449 48.4789C140.173 49.404 138.253 49.8666 135.786 49.8666H126.115V30.2441H135.212C137.51 30.2441 139.276 30.6926 140.51 31.6037C141.098 32.0241 141.589 32.5848 141.911 33.2435C142.234 33.9023 142.388 34.6171 142.374 35.3459C142.402 36.257 142.178 37.14 141.729 37.9249C141.295 38.6678 140.664 39.2704 139.893 39.6629C140.902 39.9852 141.785 40.602 142.416 41.4429H142.43ZM129.703 33.1034V38.5136H134.819C135.828 38.5696 136.838 38.3314 137.721 37.8268C138.029 37.5885 138.295 37.2942 138.463 36.9438C138.646 36.5934 138.73 36.2009 138.73 35.8085C138.73 35.416 138.632 35.0236 138.463 34.6732C138.281 34.3228 138.029 34.0144 137.721 33.7902C136.838 33.2716 135.828 33.0333 134.819 33.1034H129.703ZM139.725 44.1761C139.725 42.2839 138.323 41.3448 135.534 41.3448H129.703V47.0073H135.534C138.337 47.0073 139.739 46.0683 139.725 44.1761Z" fill="white"/>
<path d="M157.572 36.3141C158.722 37.3653 159.31 38.9632 159.31 41.0937V49.8677H156.031V48.0456C155.582 48.7183 154.951 49.2369 154.209 49.5453C152.358 50.2601 150.298 50.2461 148.448 49.4892C147.677 49.1529 147.004 48.5922 146.528 47.8914C146.065 47.2046 145.827 46.4057 145.841 45.5788C145.827 44.9621 145.939 44.3453 146.205 43.7847C146.458 43.2241 146.85 42.7335 147.327 42.341C148.322 41.5281 149.878 41.1216 152.008 41.1216H155.848V40.8974C155.877 40.4489 155.806 40.0004 155.652 39.5939C155.498 39.1734 155.246 38.795 154.923 38.4866C154.139 37.8699 153.157 37.5756 152.162 37.6457C151.321 37.6457 150.494 37.7719 149.709 38.0382C148.953 38.2624 148.252 38.6268 147.635 39.1173L146.276 36.5384C147.116 35.9077 148.07 35.4451 149.079 35.1648C150.2 34.8424 151.377 34.6743 152.541 34.6883C154.741 34.7163 156.409 35.2489 157.572 36.3001V36.3141ZM154.377 46.9103C155.036 46.5178 155.54 45.9151 155.806 45.1863V43.4483H152.218C150.228 43.4483 149.219 44.1071 149.219 45.4386C149.219 45.7329 149.275 46.0272 149.401 46.2935C149.527 46.5599 149.723 46.7842 149.962 46.9523C150.578 47.3588 151.307 47.555 152.036 47.5129C152.863 47.541 153.676 47.3307 154.377 46.9103Z" fill="white"/>
<path d="M176.648 36.3831C177.77 37.4904 178.344 39.1303 178.344 41.2887V49.8666H174.882V41.7373C174.966 40.672 174.63 39.6209 173.971 38.7939C173.635 38.4435 173.228 38.1772 172.766 38.009C172.317 37.8408 171.841 37.7707 171.35 37.7987C170.79 37.7707 170.243 37.8548 169.724 38.051C169.206 38.2473 168.729 38.5556 168.337 38.9621C167.538 39.8872 167.145 41.0926 167.23 42.312V49.8806H163.768V34.9114H167.075V36.8457C167.664 36.1449 168.407 35.6123 169.234 35.2759C170.173 34.9115 171.168 34.7292 172.177 34.7433C172.99 34.7012 173.817 34.8274 174.588 35.1077C175.359 35.388 176.074 35.8225 176.676 36.3831H176.648Z" fill="white"/>
<path d="M188.813 43.4481L186.248 45.915V49.8675H182.758V29.0957H186.22V41.626L193.41 34.9123H197.573L191.392 41.1916L198.175 49.8675H193.957L188.813 43.4481Z" fill="white"/>
</svg>
