<svg width="205" height="59" viewBox="0 0 205 59" fill="none" xmlns="http://www.w3.org/2000/svg">
<path d="M68.4712 37.2715V14.4934H64.7361V37.2715H68.4712Z" fill="#E4E4E4"/>
<path d="M70.7578 29.6786C70.7578 34.3322 73.8806 37.6386 78.626 37.6386C83.3715 37.6386 86.4943 34.3322 86.4943 29.6786C86.4943 25.025 83.3715 21.7185 78.626 21.7185C73.8806 21.7185 70.7578 25.025 70.7578 29.6786ZM74.5235 29.6786C74.5235 26.9538 76.1462 25.0556 78.626 25.0556C81.1059 25.0556 82.7285 26.9538 82.7285 29.6786C82.7285 32.3728 81.1059 34.3015 78.626 34.3015C76.1462 34.3015 74.5235 32.3728 74.5235 29.6786Z" fill="#E4E4E4"/>
<path d="M87.75 29.3724C87.75 33.781 90.5973 36.9651 94.8528 36.9651C97.0572 36.9651 98.9553 36.0772 99.9044 34.6077V37.1794C99.9044 39.6592 98.343 41.3125 95.7407 41.3125C93.4139 41.3125 91.8219 40.1797 91.6076 38.1897H87.8418C88.3317 42.1391 91.3626 44.7108 95.5264 44.7108C100.425 44.7108 103.548 41.4962 103.548 36.5058V22.1471H100.241L100.027 24.1983C99.1084 22.6063 97.2102 21.6572 94.9753 21.6572C90.6585 21.6572 87.75 24.9331 87.75 29.3724ZM91.5463 29.2805C91.5463 26.77 93.1384 24.9331 95.4958 24.9331C98.0675 24.9331 99.7819 26.8007 99.7819 29.2805C99.7819 31.791 98.0675 33.7198 95.4958 33.7198C93.169 33.7198 91.5463 31.8216 91.5463 29.2805Z" fill="#E4E4E4"/>
<path d="M105.396 29.6786C105.396 34.3322 108.519 37.6386 113.265 37.6386C118.01 37.6386 121.133 34.3322 121.133 29.6786C121.133 25.025 118.01 21.7185 113.265 21.7185C108.519 21.7185 105.396 25.025 105.396 29.6786ZM109.162 29.6786C109.162 26.9538 110.785 25.0556 113.265 25.0556C115.745 25.0556 117.367 26.9538 117.367 29.6786C117.367 32.3728 115.745 34.3015 113.265 34.3015C110.785 34.3015 109.162 32.3728 109.162 29.6786Z" fill="#E4E4E4"/>
<path d="M125.175 19.055C126.399 19.055 127.41 18.0753 127.41 16.8201C127.41 15.5954 126.399 14.6157 125.175 14.6157C123.92 14.6157 122.97 15.5954 122.97 16.8201C122.97 18.0753 123.92 19.055 125.175 19.055ZM123.307 37.2713H127.042V22.1472H123.307V37.2713Z" fill="#E4E4E4"/>
<path d="M130.315 44.2821H133.958V35.1893C134.907 36.7507 136.959 37.6691 139.224 37.6691C143.694 37.6691 146.358 34.2402 146.296 29.5254C146.204 24.7799 143.48 21.6877 139.194 21.6877C136.897 21.6877 134.815 22.6981 133.897 24.4432L133.683 22.147H130.315V44.2821ZM134.111 29.709C134.111 26.9843 135.765 25.0861 138.367 25.0861C140.969 25.0861 142.531 27.0149 142.531 29.709C142.531 32.4032 140.969 34.3014 138.367 34.3014C135.765 34.3014 134.111 32.4338 134.111 29.709Z" fill="#E4E4E4"/>
<path d="M147.244 32.74C147.367 35.7403 149.693 37.6691 153.306 37.6691C156.857 37.6691 159.276 35.771 159.276 32.8318C159.276 30.6581 157.929 29.1886 155.449 28.5763L152.786 27.9333C151.653 27.6272 150.887 27.2292 150.887 26.2495C150.887 25.2085 151.714 24.4738 153.061 24.4738C154.469 24.4738 155.388 25.2698 155.388 26.5863H158.786C158.664 23.5859 156.429 21.6877 153.153 21.6877C149.908 21.6877 147.489 23.5859 147.489 26.4638C147.489 28.4232 148.622 30.0458 151.53 30.8112L154.163 31.4848C155.143 31.7603 155.755 32.2195 155.755 33.0768C155.755 34.2708 154.623 34.8219 153.245 34.8219C151.592 34.8219 150.642 34.0565 150.642 32.74H147.244Z" fill="#E4E4E4"/>
<path d="M167.024 37.6698C169.075 37.6698 171.035 36.7208 171.922 35.3124L172.167 37.2718H175.657V22.1477H171.922V30.0772C171.922 32.802 170.881 34.3327 168.432 34.3327C166.534 34.3327 165.218 33.4143 165.218 30.2915V22.1477H161.482V31.6079C161.482 35.2206 163.442 37.6698 167.024 37.6698Z" fill="#E4E4E4"/>
<path d="M182.688 37.2711V28.5763C182.688 26.127 184.127 24.9636 185.903 24.9636C187.679 24.9636 188.842 26.0964 188.842 28.2395V37.2711H192.485V28.6069C192.485 26.127 193.894 24.9636 195.669 24.9636C197.476 24.9636 198.639 26.0964 198.639 28.2395V37.2711H202.252V27.3823C202.252 23.8921 200.323 21.6877 196.649 21.6877C194.353 21.6877 192.546 22.7899 191.812 24.5656C190.985 22.7899 189.332 21.6877 186.821 21.6877C185.046 21.6877 183.454 22.5144 182.566 23.8615L182.382 22.147H178.953V37.2711H182.688Z" fill="#E4E4E4"/>
<path d="M173.734 50.7872C174.29 50.7872 174.774 50.3187 174.774 49.7623C174.774 49.1912 174.29 48.7227 173.734 48.7227C173.163 48.7227 172.68 49.1912 172.68 49.7623C172.68 50.3187 173.163 50.7872 173.734 50.7872Z" fill="#E4E4E4"/>
<path d="M175.848 47.0094C175.848 49.2497 177.224 50.7578 179.23 50.7578C180.958 50.7578 182.276 49.7182 182.554 48.1661H181.236C180.987 49.03 180.226 49.5425 179.318 49.5425C178.029 49.5425 177.209 48.5468 177.209 46.9947C177.209 45.4134 178.073 44.447 179.347 44.447C180.226 44.447 180.987 44.9155 181.221 45.838H182.539C182.305 44.2713 181.075 43.217 179.362 43.217C177.283 43.217 175.848 44.7545 175.848 47.0094Z" fill="#E4E4E4"/>
<path d="M183.074 46.9952C183.074 49.1477 184.538 50.7583 186.735 50.7583C188.931 50.7583 190.395 49.1477 190.395 46.9952C190.395 44.8428 188.931 43.2322 186.735 43.2322C184.538 43.2322 183.074 44.8428 183.074 46.9952ZM184.465 46.9952C184.465 45.531 185.358 44.4621 186.735 44.4621C188.111 44.4621 189.004 45.531 189.004 46.9952C189.004 48.4595 188.111 49.5284 186.735 49.5284C185.358 49.5284 184.465 48.4595 184.465 46.9952Z" fill="#E4E4E4"/>
<path d="M192.947 50.5972V46.2924C192.947 45.165 193.649 44.4328 194.674 44.4328C195.655 44.4328 196.27 45.0625 196.27 46.1899V50.5972H197.618V46.3071C197.618 45.165 198.306 44.4328 199.345 44.4328C200.312 44.4328 200.927 45.0625 200.927 46.1899V50.5972H202.259V45.8971C202.259 44.2425 201.293 43.2322 199.653 43.2322C198.54 43.2322 197.676 43.7739 197.325 44.6525C196.959 43.7739 196.153 43.2322 194.982 43.2322C194.089 43.2322 193.298 43.6422 192.903 44.345L192.8 43.4372H191.57V50.5972H192.947Z" fill="#E4E4E4"/>
<path fill-rule="evenodd" clip-rule="evenodd" d="M2.66235 29.8639L2.66492 29.5971L2.67022 29.3302L2.67826 29.0633L2.68903 28.7964L2.70255 28.5296L2.71881 28.2627L2.73781 27.9959L2.75955 27.7292L2.78404 27.4625L2.81128 27.1959L2.84126 26.9297L2.87396 26.6635L2.90942 26.3975L2.94762 26.1318L2.98856 25.8664L3.03223 25.6014L3.07865 25.3365L3.12778 25.0721L3.17965 24.808L3.23425 24.5443L3.29159 24.281L3.35162 24.0183L3.41439 23.756L3.47986 23.4942L3.54805 23.233L3.61893 22.9723L3.69253 22.7122L3.76882 22.4527L3.84779 22.194L3.92944 21.9359L4.01378 21.6784L4.1008 21.4217L4.19047 21.1657L4.2828 20.9105L4.37779 20.6561L4.47541 20.4026L4.57569 20.1499L4.67858 19.8981L4.7841 19.6473L4.89223 19.3973L5.00296 19.1482L5.11629 18.9003L5.23221 18.6533L5.3507 18.4073L5.47177 18.1624L5.59539 17.9187L5.72155 17.676L5.85026 17.4344L5.98148 17.1942L6.11521 16.955L6.25147 16.717L6.3902 16.4803L6.53141 16.2448L6.6751 16.0107L6.82124 15.7779L6.96982 15.5464L7.12083 15.3164L7.27427 15.0875L7.4301 14.8603L7.58833 14.6344L7.74893 14.41L7.91189 14.1872L8.0772 13.9657L8.24484 13.7459L8.41481 13.5276L8.58707 13.3108L8.76162 13.0957L8.93845 12.8822L9.11752 12.6704L9.29884 12.4602L9.48239 12.2518L9.66814 12.045L9.85608 11.84L10.0462 11.6368L10.2385 11.4353L10.4329 11.2357L10.6294 11.0379L10.828 10.8419L11.0287 10.6478L11.2315 10.4556L11.4364 10.2653L11.6432 10.077L11.8521 9.89061L12.0629 9.7062L12.2758 9.52377L12.4906 9.34338L12.7073 9.16502L12.9259 8.98872L13.1464 8.81449L13.3688 8.64235L13.5929 8.47234L13.8191 8.30444L14.047 8.13872L14.2766 7.97516L14.508 7.81379L14.7412 7.65463L14.976 7.49768L15.2125 7.34299L15.4508 7.19055L15.6908 7.0404L15.9322 6.89254L16.1754 6.74698L16.4201 6.60377L16.6664 6.4629L16.9142 6.32438L17.1635 6.18825L17.4143 6.0545L17.6666 5.92317L17.9203 5.79425L18.1754 5.66778L18.4319 5.54376L18.6899 5.4222L18.9491 5.30314L19.2097 5.18657L19.4716 5.07251L19.7347 4.96097L19.9991 4.85198L20.2646 4.74553L20.5314 4.64164L20.7993 4.54034L21.0684 4.44161L21.3386 4.34551L21.6099 4.25199L21.8822 4.16111L22.1555 4.07287L22.4298 3.98726L22.7052 3.90432L22.9816 3.82405L23.2587 3.74646L23.5369 3.67155L23.8159 3.59933L24.0957 3.52984L24.3763 3.46307L24.6578 3.399L24.94 3.33769L25.2229 3.27911L25.5066 3.22328L25.7909 3.17022L26.0759 3.11992L26.3615 3.0724L26.6477 3.02766L26.9345 2.9857L27.2217 2.94656L27.5095 2.9102L27.7978 2.87666L28.0865 2.84591L28.3757 2.81801L28.6652 2.79292L28.9551 2.77065L29.2453 2.75123L30.8059 2.66211L30.8949 10.1811L30.9459 10.1806L31.1614 10.1803L31.3769 10.1821L31.5924 10.186L31.8082 10.192L32.0238 10.2002L32.2396 10.2105L32.4554 10.2229L32.6712 10.2375L32.8868 10.2541L33.1026 10.2729L33.3181 10.2938L33.5336 10.3169L33.7488 10.3421L33.9641 10.3694L34.1791 10.3988L34.3939 10.4303L34.6085 10.464L34.8229 10.4998L35.037 10.5378L35.2509 10.5778L35.4644 10.62L35.6775 10.6643L35.8905 10.7107L36.1029 10.7592L36.315 10.8098L36.5267 10.8626L36.738 10.9174L36.9487 10.9744L37.159 11.0334L37.3689 11.0946L37.5782 11.1578L37.7869 11.2231L37.9951 11.2905L38.2027 11.36L38.4097 11.4315L38.6161 11.5052L38.8218 11.5808L39.0268 11.6586L39.2312 11.7384L39.4348 11.8202L39.6377 11.9041L39.8398 11.99L40.0411 12.078L40.2418 12.1679L40.4414 12.2599L40.6403 12.3539L40.8384 12.4499L41.0355 12.5479L41.2317 12.6478L41.427 12.7498L41.6213 12.8537L41.8147 12.9596L42.0071 13.0674L42.1985 13.1771L42.3888 13.2888L42.5781 13.4025L42.7663 13.518L42.9535 13.6354L43.1395 13.7548L43.3243 13.876L43.508 13.9991L43.6907 14.1241L43.872 14.2508L44.0522 14.3795L44.2311 14.51L44.4087 14.6423L44.5852 14.7765L44.7602 14.9124L44.9341 15.0501L45.1064 15.1895L45.2776 15.3307L45.4473 15.4738L45.6157 15.6185L45.7828 15.7649L45.9484 15.9131L46.1124 16.063L46.275 16.2146L46.4362 16.3678L46.596 16.5226L46.7541 16.6792L46.9108 16.8373L47.0658 16.9972L47.2195 17.1585L47.3713 17.3214L47.5218 17.4859L47.6704 17.6521L47.8175 17.8197L47.963 17.9888L48.1068 18.1595L48.2489 18.3316L48.3894 18.5053L48.5281 18.6804L48.6651 18.8569L48.8003 19.0348L48.9338 19.2143L49.0654 19.395L49.1954 19.5773L49.3234 19.7608L49.4497 19.9456L49.5742 20.1318L49.6968 20.3194L49.8175 20.5082L49.9363 20.6983L50.0533 20.8896L50.1683 21.0822L50.2814 21.276L50.3926 21.471L50.5019 21.6672L50.6091 21.8647L50.7144 22.0631L50.8177 22.2628L50.919 22.4635L51.0183 22.6653L51.1156 22.8683L51.2109 23.0722L51.3041 23.2772L51.3953 23.4833L51.4844 23.6903L51.5713 23.8983L51.6562 24.1072L51.739 24.3171L51.8197 24.5278L51.8982 24.7396L51.9746 24.952L52.0489 25.1656L52.121 25.3797L52.191 25.5948L52.2588 25.8106L52.3244 26.0272L52.3878 26.2446L52.449 26.4626L52.508 26.6814L52.5648 26.9009L52.6193 27.121L52.6717 27.3418L52.7218 27.5632L52.7696 27.7852L52.8152 28.0076L52.8585 28.2308L52.8995 28.4545L52.9383 28.6786L52.9748 28.9032L53.009 29.1283L53.041 29.3539L53.0705 29.5798L53.0978 29.8062L53.1228 30.0329L53.1455 30.26L53.1658 30.4874L53.1839 30.7151L53.1996 30.9431L53.2129 31.1714L53.224 31.3998L53.2328 31.6287L53.239 31.8575L53.2432 32.0866L53.2448 32.3158L53.2441 32.5451L53.241 32.7746L53.2356 33.0042L53.2279 33.2337L53.2177 33.4633L53.2054 33.6929L53.1904 33.9226L53.1733 34.1522L53.1537 34.3817L53.1317 34.6112L53.1075 34.8405L53.0808 35.0696L53.0517 35.2987L53.0205 35.5275L52.9867 35.7562L52.9506 35.9846L52.9121 36.2128L52.8712 36.4406L52.8281 36.6683L52.7826 36.8956L52.7347 37.1226L52.6844 37.3491L52.6318 37.5754L52.5769 37.8012L52.5196 38.0265L52.4599 38.2514L52.398 38.4758L52.3337 38.6997L52.2672 38.923L52.1982 39.146L52.1269 39.3682L52.0534 39.5899L51.9775 39.8109L51.8993 40.0313L51.8189 40.2511L51.7361 40.4701L51.651 40.6884L51.5637 40.906L51.4741 41.1228L51.3823 41.3389L51.2882 41.5543L51.1918 41.7686L51.0931 41.9822L50.9922 42.1949L50.8892 42.4067L50.7838 42.6177L50.6764 42.8276L50.5665 43.0367L50.4547 43.2446L50.3405 43.4518L50.2243 43.6577L50.1059 43.8627L49.9853 44.0666L49.8625 44.2693L49.7377 44.4711L49.6105 44.6716L49.4814 44.871L49.3503 45.0692L49.2169 45.2662L49.0816 45.462L48.9441 45.6566L48.8046 45.8499L48.6629 46.042L48.5193 46.2327L48.3737 46.4221L48.226 46.6101L48.0764 46.7969L47.9248 46.9821L47.7712 47.166L47.6156 47.3485L47.4581 47.5295L47.2987 47.7091L47.1373 47.8872L46.9741 48.0638L46.8091 48.2388L46.642 48.4124L46.4732 48.5843L46.3025 48.7547L46.1299 48.9234L45.9557 49.0906L45.7796 49.2562L45.6018 49.4201L45.4221 49.5823L45.2406 49.7427L45.0576 49.9016L44.8727 50.0588L44.6862 50.2141L44.498 50.3676L44.3082 50.5195L44.1166 50.6695L43.9235 50.8176L43.7287 50.9639L43.5324 51.1085L43.3346 51.2512L43.1351 51.3919L42.9341 51.5308L42.7316 51.6678L42.5277 51.8028L42.3222 51.9359L42.1153 52.0671L41.907 52.1963L41.6972 52.3235L41.4859 52.4486L41.2734 52.5719L41.0596 52.693L40.8442 52.812L40.6278 52.9292L40.4099 53.044L40.1908 53.1569L39.9703 53.2678L39.7487 53.3764L39.5259 53.4829L39.3018 53.5874L39.0766 53.6896L38.8503 53.7897L38.6228 53.8876L38.3943 53.9833L38.1647 54.0769L37.934 54.1682L37.7022 54.2572L37.4694 54.3441L37.2357 54.4287L37.0009 54.5111L36.7653 54.5911L36.5287 54.6689L36.2911 54.7444L36.0527 54.8176L35.8135 54.8886L35.5735 54.9571L35.3326 55.0234L35.091 55.0874L34.8485 55.1489L34.6054 55.2082L34.3615 55.2651L34.1169 55.3196L33.8717 55.3718L33.6258 55.4216L33.3793 55.4689L33.1323 55.5139L32.8847 55.5564L32.6364 55.5966L32.3878 55.6344L32.1384 55.6697L31.8889 55.7025L31.6387 55.733L31.3881 55.761L31.1372 55.7865L30.8859 55.8097L30.6343 55.8303L30.3823 55.8486L30.1301 55.8643L29.8774 55.8776L29.6246 55.8884L29.3717 55.8966L29.1184 55.9025L28.8651 55.9058L28.6115 55.9067L28.3579 55.9051L28.1042 55.901L27.8504 55.8945L27.5965 55.8853L27.3427 55.8737L27.0889 55.8598L26.8351 55.8431L26.5813 55.8241L26.3277 55.8025L26.0742 55.7784L25.8207 55.7519L25.5675 55.7229L25.3145 55.6914L25.0616 55.6573L24.8091 55.6207L24.5567 55.5817L24.3047 55.5402L24.053 55.4962L23.8015 55.4496L23.5506 55.4007L23.3 55.3493L23.0499 55.2952L22.8 55.2388L22.5508 55.18L22.302 55.1186L22.0538 55.0547L21.8061 54.9884L21.559 54.9197L21.3125 54.8485L21.0665 54.7749L20.8213 54.6988L20.5768 54.6202L20.3329 54.5393L20.0897 54.4558L19.8473 54.37L19.6057 54.2819L19.3649 54.1912L19.1249 54.0982L18.8859 54.0027L18.6476 53.9049L18.4103 53.8046L18.1738 53.7021L17.9384 53.5973L17.7038 53.49L17.4704 53.3803L17.2379 53.2683L17.0066 53.154L16.7762 53.0374L16.547 52.9185L16.3189 52.7973L16.0918 52.6739L15.8661 52.5481L15.6415 52.42L15.4182 52.2897L15.196 52.1571L14.9752 52.0224L14.7555 51.8853L14.5372 51.7462L14.3204 51.6047L14.1048 51.4612L13.8906 51.3153L13.6779 51.1674L13.4665 51.0174L13.2566 50.8651L13.0482 50.7109L12.8412 50.5543L12.6358 50.3958L12.4319 50.2353L12.2296 50.0725L12.0289 49.9078L11.8298 49.741L11.6323 49.5722L11.4364 49.4014L11.2423 49.2285L11.0498 49.0538L10.859 48.8771L10.67 48.6984L10.4827 48.5179L10.2972 48.3352L10.1135 48.1509L9.93159 47.9646L9.75153 47.7764L9.57332 47.5865L9.39699 47.3947L9.22256 47.201L9.05003 47.0056L8.87944 46.8084L8.7108 46.6094L8.54413 46.4088L8.37946 46.2064L8.21678 46.0023L8.05614 45.7965L7.89754 45.5891L7.741 45.38L7.58654 45.1693L7.43418 44.957L7.28392 44.7431L7.13581 44.5277L6.98984 44.3107L6.84604 44.0922L6.70442 43.8723L6.56499 43.6508L6.42777 43.4278L6.2928 43.2035L6.16006 42.9776L6.0296 42.7505L5.9014 42.522L5.77549 42.2921L5.65189 42.0607L5.5306 41.8282L5.41167 41.5945L5.29506 41.3594L5.18084 41.1231L5.06898 40.8855L4.95951 40.6468L4.85245 40.4068L4.7478 40.1659L4.64558 39.9236L4.54582 39.6804L4.44848 39.436L4.35363 39.1906L4.26126 38.9442L4.17137 38.6967L4.08399 38.4484L3.9991 38.199L3.91674 37.9487L3.83693 37.6975L3.75965 37.4454L3.68493 37.1925L3.61277 36.9386L3.54318 36.684L3.47617 36.4287L3.41176 36.1726L3.34994 35.9156L3.29075 35.6581L3.23416 35.3997L3.1802 35.1408L3.12887 34.8812L3.08018 34.6211L3.03413 34.3604L2.99075 34.0991L2.95002 33.8372L2.91196 33.5749L2.87658 33.312L2.84389 33.0487L2.81387 32.785L2.78655 32.5209L2.76192 32.2565L2.74 31.9916L2.72078 31.7265L2.70427 31.4611L2.69048 31.1954L2.67941 30.9294L2.67105 30.6633L2.66542 30.397L2.66253 30.1305L2.66235 29.8639ZM28.4568 10.3386L28.3962 5.21358L28.3385 5.21914L28.0739 5.24731L27.8099 5.27803L27.5461 5.31136L27.2833 5.34717L27.0208 5.38559L26.7586 5.42657L26.4972 5.47007L26.236 5.51617L25.9762 5.56466L25.716 5.61587L25.4576 5.66938L25.1988 5.72559L24.9414 5.78419L24.6842 5.84539L24.4282 5.90894L24.1729 5.97504L23.9183 6.04361L23.6644 6.11465L23.4118 6.18808L23.1595 6.26403L22.9086 6.34234L22.6584 6.42314L22.4095 6.50617L22.1609 6.59183L21.9137 6.67978L21.6678 6.77005L21.4224 6.86279L21.1784 6.95779L20.9358 7.05508L20.6938 7.15488L20.453 7.25693L20.2134 7.36132L19.9751 7.4679L19.738 7.5768L19.5023 7.6879L19.2674 7.80144L19.0341 7.91706L18.8021 8.03493L18.5715 8.15503L18.3421 8.27734L18.1143 8.40175L17.8875 8.52846L17.6622 8.65736L17.4388 8.7881L17.2161 8.9214L16.9955 9.05647L16.7764 9.19364L16.5584 9.33306L16.3421 9.47452L16.1274 9.61804L15.9147 9.76325L15.7028 9.91103L15.493 10.0604L15.2848 10.2118L15.0781 10.3653L14.8732 10.5207L14.6702 10.6778L14.4684 10.8373L14.2689 10.9982L14.0708 11.1612L13.8746 11.326L13.6801 11.4927L13.4877 11.6611L13.2966 11.8315L13.1078 12.0035L12.9205 12.1774L12.7354 12.3528L12.552 12.5301L12.3707 12.7091L12.1912 12.8898L12.0134 13.0723L11.838 13.2561L11.6645 13.4415L11.4926 13.629L11.3231 13.8178L11.1556 14.0079L10.9899 14.2L10.8266 14.3932L10.6651 14.5882L10.5057 14.7846L10.3485 14.9825L10.1932 15.1818L10.0403 15.3824L9.88941 15.5844L9.74056 15.7881L9.59411 15.9927L9.44962 16.199L9.30743 16.4064L9.16744 16.6151L9.02955 16.8252L8.89399 17.0364L8.76065 17.2487L8.62955 17.4624L8.50079 17.6771L8.37414 17.8931L8.24978 18.1104L8.12786 18.3284L8.00813 18.5476L7.89068 18.7681L7.77562 18.9894L7.66282 19.2119L7.55245 19.4351L7.44437 19.6594L7.33868 19.8846L7.2353 20.1109L7.13436 20.3379L7.03571 20.5659L6.93947 20.7947L6.84569 21.0242L6.75426 21.2546L6.66522 21.4858L6.57863 21.7177L6.49444 21.9504L6.41273 22.1836L6.33338 22.4177L6.2565 22.6524L6.18208 22.8877L6.11012 23.1235L6.04055 23.3602L5.9735 23.5971L5.90891 23.8347L5.84676 24.0727L5.78708 24.3114L5.7299 24.5503L5.67519 24.7898L5.62296 25.0296L5.57321 25.2699L5.52596 25.5104L5.48118 25.7514L5.4389 25.9926L5.39911 26.2342L5.36183 26.4759L5.32703 26.7179L5.29474 26.9602L5.26494 27.2026L5.23764 27.4451L5.21284 27.6879L5.19054 27.9307L5.17073 28.1735L5.15343 28.4165L5.13863 28.6596L5.12632 28.9025L5.11651 29.1456L5.10918 29.3885L5.10437 29.6314L5.10202 29.8742L5.10218 30.117L5.10482 30.3596L5.10994 30.6021L5.11754 30.8444L5.12762 31.0864L5.14019 31.3282L5.1552 31.5697L5.17269 31.811L5.19265 32.0519L5.21506 32.2926L5.23991 32.533L5.26723 32.7729L5.29698 33.0125L5.32916 33.2516L5.36379 33.4902L5.40084 33.7285L5.4403 33.9661L5.48219 34.2033L5.52648 34.44L5.57316 34.676L5.62224 34.9116L5.6737 35.1464L5.72754 35.3807L5.78375 35.6143L5.84232 35.8472L5.90326 36.0795L5.96652 36.3109L6.03214 36.5417L6.10008 36.7717L6.17034 37.0009L6.24291 37.2293L6.31776 37.4568L6.39491 37.6835L6.47435 37.9093L6.55605 38.1342L6.63999 38.3581L6.72624 38.5812L6.81466 38.8032L6.90533 39.0243L6.99822 39.2444L7.09331 39.4633L7.1906 39.6814L7.29006 39.8983L7.39169 40.1141L7.49546 40.3288L7.60139 40.5423L7.70944 40.7548L7.81962 40.966L7.93188 41.1761L8.04625 41.3849L8.16268 41.5925L8.28118 41.7988L8.40173 42.0039L8.52432 42.2076L8.64887 42.41L8.77552 42.6112L8.90409 42.8108L9.03467 43.0093L9.16721 43.2063L9.30167 43.4018L9.43805 43.5961L9.5764 43.7888L9.71659 43.9801L9.85871 44.1699L10.0026 44.3581L10.1485 44.5449L10.2961 44.73L10.4455 44.9137L10.5968 45.096L10.7498 45.2765L10.9046 45.4554L11.0611 45.6327L11.2195 45.8084L11.3794 45.9823L11.5411 46.1547L11.7044 46.3254L11.8694 46.4944L12.0361 46.6617L12.2044 46.8272L12.3743 46.9911L12.5457 47.1531L12.7187 47.3135L12.8933 47.472L13.0694 47.6287L13.2469 47.7835L13.426 47.9366L13.6067 48.0878L13.7885 48.2371L13.972 48.3847L14.1568 48.5302L14.343 48.674L14.5306 48.8159L14.7196 48.9558L14.9098 49.0937L15.1014 49.2297L15.2941 49.3638L15.4883 49.496L15.6836 49.626L15.8803 49.7542L16.078 49.8804L16.277 50.0044L16.4772 50.1266L16.6783 50.2467L16.8808 50.3648L17.0842 50.4807L17.2888 50.5947L17.4943 50.7065L17.701 50.8163L17.9086 50.924L18.1171 51.0297L18.3268 51.1331L18.5374 51.2345L18.7488 51.3338L18.9611 51.431L19.1742 51.5259L19.3884 51.6188L19.6032 51.7095L19.819 51.7981L20.0354 51.8845L20.2526 51.9686L20.4707 52.0508L20.6893 52.1306L20.9086 52.2082L21.1288 52.2837L21.3495 52.3571L21.5709 52.4281L21.7926 52.497L22.0153 52.5636L22.2383 52.6281L22.4619 52.6902L22.6861 52.7503L22.9106 52.808L23.1357 52.8635L23.3611 52.9168L23.5871 52.9679L23.8134 53.0166L24.0399 53.0632L24.267 53.1075L24.4944 53.1496L24.722 53.1894L24.9499 53.2269L25.178 53.2622L25.4065 53.2952L25.6352 53.326L25.8638 53.3546L26.0928 53.3808L26.3219 53.4048L26.5511 53.4266L26.7804 53.446L27.0098 53.4633L27.2391 53.4783L27.4686 53.491L27.698 53.5014L27.9273 53.5097L28.1567 53.5157L28.386 53.5193L28.6151 53.5207L28.8442 53.5199L29.0732 53.5169L29.3018 53.5117L29.5304 53.5041L29.7588 53.4944L29.987 53.4824L30.2147 53.4681L30.4423 53.4518L30.6697 53.4331L30.8967 53.4122L31.1232 53.3891L31.3495 53.3638L31.5753 53.3364L31.8007 53.3067L32.0257 53.2747L32.2503 53.2407L32.4743 53.2044L32.6979 53.166L32.921 53.1254L33.1434 53.0826L33.3653 53.0378L33.5867 52.9907L33.8074 52.9415L34.0274 52.8902L34.2469 52.8367L34.4656 52.7812L34.6837 52.7234L34.9009 52.6636L35.1176 52.6017L35.3334 52.5377L35.5485 52.4717L35.7627 52.4036L35.9762 52.3334L36.1888 52.2612L36.4003 52.1869L36.6113 52.1105L36.8212 52.0323L37.0302 51.9519L37.2382 51.8696L37.4452 51.7853L37.6513 51.699L37.8564 51.6107L38.0605 51.5205L38.2633 51.4283L38.4654 51.3342L38.6662 51.2381L38.8659 51.1403L39.0646 51.0403L39.2621 50.9386L39.4584 50.8351L39.6537 50.7295L39.8475 50.6222L40.0402 50.5131L40.2316 50.4022L40.4221 50.2893L40.6109 50.1748L40.7988 50.0584L40.985 49.9403L41.1701 49.8204L41.3539 49.6987L41.5364 49.5752L41.7172 49.4503L41.8967 49.3234L42.075 49.195L42.2517 49.0649L42.4272 48.933L42.6009 48.7998L42.7735 48.6645L42.9443 48.528L43.1136 48.3898L43.2818 48.2499L43.4481 48.1084L43.6128 47.9656L43.7761 47.821L43.9377 47.6751L44.0979 47.5276L44.2564 47.3787L44.4131 47.2284L44.5684 47.0764L44.722 46.923L44.8739 46.7684L45.0242 46.6122L45.1726 46.4549L45.3193 46.2962L45.4646 46.1357L45.6079 45.9744L45.7496 45.8114L45.8894 45.6474L46.0276 45.482L46.1639 45.3155L46.2983 45.1476L46.4312 44.9784L46.562 44.8083L46.6913 44.6367L46.8184 44.4642L46.9439 44.2904L47.0677 44.1153L47.1891 43.9396L47.309 43.7624L47.4268 43.5845L47.5429 43.4052L47.6573 43.2248L47.7693 43.0438L47.8796 42.8617L47.988 42.6781L48.0943 42.4943L48.1988 42.3091L48.3014 42.123L48.4018 41.9364L48.5004 41.7485L48.597 41.5597L48.6914 41.3708L48.7841 41.1803L48.8747 40.9892L48.9632 40.7975L49.0497 40.605L49.1343 40.4118L49.2167 40.2179L49.2972 40.0231L49.3756 39.8277L49.4519 39.6321L49.5262 39.4351L49.5983 39.2381L49.6686 39.0402L49.7367 38.8418L49.8028 38.6428L49.8665 38.4438L49.9285 38.2434L49.9882 38.0432L50.0458 37.8423L50.1015 37.6412L50.155 37.4392L50.2062 37.2373L50.2556 37.0347L50.3027 36.8317L50.3478 36.6286L50.3908 36.4249L50.4316 36.2214L50.4703 36.0169L50.5069 35.813L50.5414 35.6083L50.5737 35.4034L50.604 35.1986L50.6322 34.9933L50.6581 34.7883L50.6821 34.5824L50.7038 34.3773L50.7235 34.1715L50.7409 33.9661L50.7564 33.76L50.7697 33.5548L50.7809 33.3489L50.7899 33.1428L50.7968 32.9373L50.8018 32.7321L50.8044 32.5262L50.8051 32.3207L50.8036 32.1154L50.8 31.9103L50.7943 31.7052L50.7864 31.5009L50.7766 31.2957L50.7646 31.0915L50.7505 30.8874L50.7344 30.6838L50.7162 30.4799L50.6959 30.2769L50.6736 30.0738L50.6491 29.8713L50.6226 29.669L50.5941 29.4673L50.5634 29.2655L50.5307 29.0647L50.4961 28.8645L50.4594 28.6641L50.4205 28.4645L50.3798 28.2656L50.3369 28.0666L50.2923 27.8691L50.2454 27.6712L50.1968 27.4748L50.1458 27.278L50.0931 27.0828L50.0384 26.8878L49.9817 26.6931L49.9231 26.4997L49.8625 26.307L49.7998 26.1144L49.7355 25.9232L49.669 25.7322L49.6008 25.5424L49.5305 25.353L49.4585 25.1649L49.3844 24.9771L49.3085 24.7903L49.2309 24.6048L49.1514 24.42L49.0697 24.2355L48.9868 24.0527L48.9015 23.8701L48.8147 23.6892L48.726 23.509L48.6354 23.3294L48.5433 23.1513L48.4491 22.974L48.3532 22.7975L48.256 22.6227L48.1566 22.4483L48.0557 22.2754L47.9528 22.1033L47.8487 21.9329L47.7423 21.763L47.6348 21.5946L47.5252 21.427L47.4142 21.2609L47.3017 21.0962L47.1872 20.9322L47.0713 20.7697L46.9539 20.6083L46.8348 20.4485L46.7142 20.2895L46.592 20.1322L46.4683 19.9759L46.3431 19.8211L46.2163 19.6676L46.088 19.5154L45.9582 19.3646L45.8271 19.2151L45.6947 19.067L45.5606 18.9204L45.4249 18.7749L45.2884 18.6314L45.1497 18.4887L45.0103 18.348L44.8694 18.2083L44.7272 18.0704L44.5832 17.9336L44.4386 17.7989L44.2922 17.6652L44.1446 17.5332L43.9962 17.4029L43.8463 17.274L43.6947 17.1464L43.5423 17.0206L43.3888 16.8964L43.234 16.7738L43.078 16.6527L42.9212 16.5335L42.7626 16.4153L42.6035 16.2994L42.4431 16.1849L42.2816 16.0719L42.1193 15.9608L41.9553 15.8509L41.7913 15.7434L41.6254 15.637L41.4591 15.5325L41.2913 15.4296L41.1229 15.3285L40.9536 15.2292L40.7836 15.1317L40.6121 15.0355L40.4405 14.9415L40.2674 14.849L40.0937 14.7584L39.9194 14.6696L39.7439 14.5824L39.5678 14.4969L39.391 14.4135L39.2133 14.3316L39.0352 14.2517L38.8562 14.1735L38.6708 14.0947L38.4964 14.0227L38.315 13.9497L38.1338 13.879L37.9512 13.8097L37.7685 13.7426L37.5851 13.6771L37.4013 13.6136L37.2167 13.5517L37.0319 13.4919L36.8463 13.4339L36.6604 13.3777L36.4743 13.3235L36.2874 13.271L36.0998 13.2204L35.9126 13.1717L35.7249 13.125L35.536 13.0799L35.3478 13.0369L35.1586 12.9957L34.9695 12.9564L34.7796 12.9189L34.5901 12.8834L34.4 12.8497L34.2101 12.818L34.0192 12.788L33.8288 12.7601L33.6381 12.734L33.4471 12.7097L33.2561 12.6874L33.065 12.667L32.8739 12.6484L32.6826 12.6317L32.4912 12.617L32.2996 12.604L32.1086 12.593L31.9175 12.5839L31.7257 12.5767L31.5349 12.5713L31.3438 12.5678L31.1528 12.5662L30.9615 12.5665L30.9231 12.5669L30.9834 17.6547L31.0919 17.6542L31.2316 17.655L31.3712 17.6571L31.511 17.6607L31.6509 17.6656L31.7908 17.672L31.9307 17.6798L32.0707 17.6888L32.2107 17.6993L32.3508 17.7112L32.4908 17.7245L32.6307 17.7391L32.7707 17.7552L32.9106 17.7727L33.0504 17.7914L33.1902 17.8118L33.3298 17.8334L33.4693 17.8564L33.6088 17.8809L33.748 17.9067L33.8871 17.934L34.0261 17.9626L34.1649 17.9926L34.3035 18.024L34.4418 18.0569L34.58 18.0911L34.7178 18.1266L34.8554 18.1636L34.9928 18.202L35.1299 18.2418L35.2667 18.2829L35.4031 18.3253L35.5392 18.3693L35.675 18.4145L35.8105 18.4613L35.9454 18.5093L36.0802 18.5587L36.2143 18.6094L36.3482 18.6616L36.4816 18.7151L36.6146 18.7699L36.747 18.8262L36.8791 18.8838L37.0106 18.9427L37.1416 19.0029L37.272 19.0645L37.4021 19.1275L37.5315 19.1918L37.6603 19.2574L37.7886 19.3244L37.9163 19.3925L38.0434 19.4621L38.1699 19.5329L38.2957 19.6051L38.4209 19.6786L38.5455 19.7534L38.6693 19.8294L38.7924 19.9067L38.9149 19.9854L39.0367 20.0653L39.1577 20.1463L39.278 20.2287L39.3976 20.3124L39.5163 20.3972L39.6342 20.4834L39.7514 20.5708L39.8678 20.6593L39.9832 20.7492L40.098 20.8402L40.2118 20.9323L40.3248 21.0258L40.4369 21.1204L40.5482 21.2161L40.6585 21.313L40.7679 21.4111L40.8764 21.5104L40.9838 21.6108L41.0905 21.7124L41.196 21.815L41.3007 21.9188L41.4043 22.0237L41.507 22.1298L41.6087 22.2368L41.7092 22.3451L41.8087 22.4543L41.9072 22.5647L42.0047 22.676L42.1011 22.7884L42.1964 22.9019L42.2906 23.0163L42.3836 23.1319L42.4756 23.2484L42.5664 23.3659L42.6561 23.4844L42.7446 23.6039L42.832 23.7242L42.9182 23.8456L43.0032 23.968L43.087 24.0912L43.1695 24.2154L43.2509 24.3404L43.331 24.4665L43.4099 24.5933L43.4877 24.721L43.5641 24.8495L43.6392 24.9791L43.713 25.1092L43.7856 25.2404L43.8568 25.3723L43.9268 25.505L43.9955 25.6385L44.0627 25.7728L44.1287 25.9079L44.1934 26.0437L44.2567 26.1801L44.3186 26.3175L44.3791 26.4554L44.4384 26.5941L44.4961 26.7335L44.5526 26.8735L44.6075 27.0142L44.6611 27.1554L44.7132 27.2975L44.764 27.44L44.8133 27.5833L44.8613 27.727L44.9076 27.8714L44.9526 28.0163L44.9961 28.1618L45.0382 28.3078L45.0788 28.4543L45.1178 28.6014L45.1554 28.7489L45.1915 28.8969L45.2261 29.0454L45.2593 29.1943L45.2908 29.3437L45.3209 29.4934L45.3494 29.6436L45.3764 29.7942L45.402 29.9452L45.4259 30.0964L45.4483 30.2482L45.4692 30.4L45.4885 30.5523L45.5063 30.705L45.5224 30.8579L45.5371 31.011L45.5502 31.1645L45.5617 31.3181L45.5717 31.472L45.5799 31.626L45.5867 31.7803L45.5919 31.9348L45.5955 32.0894L45.5975 32.2442L45.5979 32.3991L45.5967 32.554L45.5939 32.7091L45.5895 32.8643L45.5835 33.0197L45.5759 33.1749L45.5667 33.3302L45.556 33.4857L45.5436 33.641L45.5295 33.7964L45.5139 33.9517L45.4966 34.1069L45.4778 34.2623L45.4573 34.4173L45.4352 34.5724L45.4115 34.7274L45.3862 34.8822L45.3594 35.0368L45.3307 35.1914L45.3007 35.3458L45.2688 35.4999L45.2354 35.6539L45.2006 35.8077L45.1639 35.9612L45.1257 36.1144L45.0859 36.2675L45.0445 36.4201L45.0016 36.5726L44.957 36.7246L44.9108 36.8763L44.863 37.0278L44.8135 37.1789L44.7625 37.3294L44.7099 37.4797L44.6559 37.6296L44.6001 37.7789L44.5427 37.9279L44.4839 38.0764L44.4235 38.2245L44.3614 38.3721L44.2978 38.519L44.2327 38.6656L44.166 38.8116L44.0977 38.957L44.028 39.1018L43.9566 39.2461L43.8837 39.3897L43.8093 39.5328L43.7334 39.6751L43.6559 39.8169L43.577 39.958L43.4966 40.0984L43.4146 40.238L43.3311 40.3771L43.2462 40.5153L43.1598 40.653L43.0718 40.7897L42.9825 40.9257L42.8916 41.0608L42.7994 41.1953L42.7056 41.3289L42.6105 41.4616L42.5138 41.5935L42.4159 41.7246L42.3164 41.8548L42.2155 41.9841L42.1133 42.1124L42.0096 42.2399L41.9046 42.3664L41.7982 42.492L41.6904 42.6166L41.5813 42.7403L41.4708 42.8629L41.359 42.9845L41.2458 43.1051L41.1315 43.2248L41.0157 43.3433L40.8987 43.4608L40.7802 43.5771L40.6607 43.6926L40.5397 43.8068L40.4176 43.9198L40.2942 44.0319L40.1695 44.1426L40.0437 44.2523L39.9166 44.3609L39.7884 44.4682L39.6589 44.5744L39.5283 44.6793L39.3964 44.783L39.2634 44.8855L39.1293 44.9868L38.9941 45.0868L38.8577 45.1855L38.7203 45.2831L38.5817 45.3792L38.4421 45.4741L38.3013 45.5677L38.1595 45.6599L38.0167 45.7509L37.8729 45.8404L37.7279 45.9286L37.5822 46.0155L37.4352 46.1009L37.2875 46.1849L37.1387 46.2676L36.9889 46.3489L36.8382 46.4288L36.6866 46.5072L36.5341 46.5841L36.3807 46.6596L36.2264 46.7338L36.0712 46.8063L35.9152 46.8774L35.7584 46.947L35.6008 47.0152L35.4423 47.0817L35.2831 47.1468L35.1231 47.2104L34.9623 47.2725L34.8008 47.333L34.6386 47.392L34.4756 47.4494L34.3119 47.5051L34.1476 47.5594L33.9826 47.612L33.817 47.6631L33.6507 47.7127L33.4838 47.7604L33.3164 47.8068L33.1482 47.8514L32.9796 47.8944L32.8104 47.9358L32.6407 47.9756L32.4703 48.0136L32.2996 48.0501L32.1283 48.0848L31.9566 48.118L31.7845 48.1495L31.6119 48.1794L31.4388 48.2074L31.2655 48.2338L31.0917 48.2585L30.9174 48.2816L30.7429 48.303L30.5681 48.3226L30.393 48.3405L30.2175 48.3568L30.0418 48.3713L29.8658 48.3841L29.6896 48.3951L29.5131 48.4044L29.3365 48.412L29.1595 48.4179L28.9825 48.422L28.8053 48.4244L28.6279 48.4251L28.4505 48.424L28.273 48.4211L28.0953 48.4166L27.9176 48.4102L27.7399 48.402L27.5621 48.3922L27.3844 48.3806L27.2065 48.3673L27.0288 48.3521L26.8511 48.3352L26.6734 48.3166L26.4958 48.2962L26.3184 48.2741L26.141 48.2502L25.9638 48.2245L25.7868 48.1971L25.6099 48.1679L25.4331 48.1369L25.2566 48.1043L25.0803 48.0698L24.9044 48.0335L24.7285 47.9955L24.5531 47.9559L24.3779 47.9143L24.203 47.8711L24.0285 47.8261L23.8543 47.7793L23.6804 47.7309L23.5071 47.6807L23.3341 47.6288L23.1614 47.5752L22.9893 47.5196L22.8177 47.4625L22.6464 47.4037L22.4757 47.3431L22.3056 47.2808L22.1359 47.2168L21.9669 47.1511L21.7983 47.0837L21.6304 47.0145L21.463 46.9437L21.2964 46.8713L21.1304 46.797L20.9649 46.7211L20.8003 46.6436L20.6363 46.5644L20.4729 46.4835L20.3103 46.401L20.1486 46.3169L19.9875 46.231L19.8272 46.1435L19.6678 46.0545L19.5091 45.9637L19.3512 45.8715L19.1943 45.7775L19.0381 45.6819L18.8829 45.5849L18.7287 45.4861L18.5753 45.3859L18.4229 45.2839L18.2714 45.1805L18.1209 45.0756L17.9714 44.9691L17.8228 44.861L17.6753 44.7515L17.5288 44.6403L17.3834 44.5277L17.2391 44.4136L17.0959 44.298L16.9537 44.1809L16.8126 44.0623L16.6727 43.9424L16.534 43.8209L16.3964 43.698L16.26 43.5737L16.1249 43.448L15.9908 43.3209L15.858 43.1923L15.7265 43.0624L15.5963 42.9312L15.4673 42.7984L15.3395 42.6645L15.213 42.5292L15.0881 42.3926L14.9643 42.2546L14.8418 42.1153L14.7208 41.9748L14.601 41.833L14.4828 41.6899L14.3658 41.5455L14.2504 41.4L14.1363 41.2532L14.0237 41.1051L13.9125 40.9559L13.8027 40.8056L13.6945 40.654L13.5879 40.5013L13.4826 40.3475L13.3789 40.1925L13.2768 40.0365L13.1761 39.8793L13.0771 39.721L12.9796 39.5617L12.8836 39.4013L12.7893 39.24L12.6966 39.0774L12.6055 38.9141L12.516 38.7496L12.4282 38.5843L12.342 38.4179L12.2574 38.2506L12.1746 38.0823L12.0934 37.9131L12.0139 37.7431L11.9361 37.5721L11.86 37.4004L11.7856 37.2277L11.713 37.0541L11.6421 36.8799L11.573 36.7049L11.5056 36.5289L11.44 36.3523L11.3762 36.1749L11.3141 35.9967L11.2539 35.8179L11.1954 35.6384L11.1388 35.4581L11.084 35.2774L11.031 35.0958L10.9798 34.9137L10.9305 34.731L10.8831 34.5475L10.8375 34.3637L10.7937 34.1792L10.7518 33.9942L10.7118 33.8086L10.6737 33.6227L10.6375 33.4362L10.6032 33.2492L10.5708 33.0617L10.5402 32.8739L10.5116 32.6857L10.4849 32.4971L10.4602 32.3081L10.4374 32.1186L10.4165 31.929L10.3975 31.739L10.3805 31.5487L10.3654 31.358L10.3523 31.1673L10.3411 30.9761L10.3319 30.7849L10.3246 30.5934L10.3193 30.4018L10.316 30.2099L10.3147 30.0179L10.3153 29.8258L10.3179 29.6336L10.3224 29.4414L10.329 29.249L10.3375 29.0565L10.348 28.8642L10.3605 28.6717L10.375 28.4794L10.3915 28.2869L10.4099 28.0947L10.4303 27.9023L10.4528 27.7102L10.4772 27.5182L10.5036 27.3262L10.532 27.1344L10.5623 26.9429L10.5947 26.7514L10.629 26.5603L10.6653 26.3693L10.7037 26.1785L10.7439 25.9882L10.7862 25.798L10.8305 25.6081L10.8767 25.4186L10.9249 25.2294L10.975 25.0407L11.0272 24.8522L11.0812 24.6643L11.1373 24.4767L11.1953 24.2895L11.2553 24.1028L11.3172 23.9167L11.3811 23.731L11.4469 23.5459L11.5147 23.3612L11.5844 23.1771L11.656 22.9937L11.7295 22.8108L11.805 22.6286L11.8824 22.447L11.9616 22.266L12.0428 22.0858L12.1259 21.9062L12.2109 21.7273L12.2977 21.5492L12.3865 21.3719L12.4771 21.1952L12.5696 21.0195L12.6639 20.8445L12.7601 20.6704L12.8581 20.4971L12.9579 20.3246L13.0596 20.1531L13.1631 19.9825L13.2684 19.8127L13.3756 19.644L13.4845 19.4761L13.5952 19.3093L13.7076 19.1435L13.8219 18.9787L13.9378 18.8148L14.0555 18.652L14.175 18.4904L14.2962 18.3297L14.4192 18.1703L14.5438 18.0119L14.6701 17.8547L14.798 17.6987L14.9277 17.5437L15.059 17.39L15.192 17.2374L15.3266 17.0862L15.4629 16.9362L15.6007 16.7874L15.7402 16.6399L15.8813 16.4936L16.0238 16.3488L16.168 16.2051L16.3137 16.0629L16.4611 15.922L16.6099 15.7824L16.7602 15.6443L16.9121 15.5075L17.0654 15.3723L17.2201 15.2384L17.3764 15.1059L17.5341 14.9749L17.6932 14.8454L17.8537 14.7174L18.0157 14.5909L18.179 14.4659L18.3437 14.3425L18.5098 14.2206L18.6771 14.1003L18.8458 13.9815L19.0159 13.8644L19.1872 13.7488L19.3597 13.635L19.5337 13.5227L19.7088 13.4121L19.8851 13.3031L20.0627 13.1958L20.2415 13.0902L20.4213 12.9863L20.6025 12.8841L20.7847 12.7836L20.968 12.6849L21.1525 12.5879L21.338 12.4927L21.5247 12.3992L21.7124 12.3075L21.9011 12.2176L22.0909 12.1296L22.2817 12.0433L22.4735 11.9589L22.6662 11.8763L22.8599 11.7956L23.0545 11.7167L23.2499 11.6397L23.4464 11.5646L23.6437 11.4913L23.8419 11.42L24.0409 11.3506L24.2407 11.283L24.4413 11.2175L24.6425 11.1538L24.8447 11.0921L25.0476 11.0324L25.2513 10.9746L25.4555 10.9187L25.6604 10.8649L25.8661 10.813L26.0724 10.7632L26.2793 10.7153L26.4868 10.6694L26.6949 10.6256L26.9034 10.5838L27.1127 10.544L27.3223 10.5062L27.5325 10.4705L27.7432 10.4368L27.9544 10.4052L28.1659 10.3756L28.3778 10.3481L28.4568 10.3386ZM28.5463 17.8849L28.4853 12.7412L28.3116 12.7655L28.1249 12.7934L27.938 12.8233L27.7523 12.8549L27.5663 12.8884L27.3813 12.9236L27.1967 12.9606L27.0127 12.9993L26.8292 13.0399L26.646 13.0823L26.4634 13.1264L26.2815 13.1723L26.0998 13.22L25.9253 13.2676L25.7394 13.3205L25.5598 13.3733L25.381 13.4279L25.2032 13.4841L25.0258 13.5421L24.849 13.6019L24.673 13.6632L24.498 13.7262L24.3236 13.791L24.15 13.8573L23.9771 13.9255L23.8055 13.9951L23.634 14.0666L23.4637 14.1395L23.2943 14.2141L23.126 14.2902L22.9581 14.3681L22.7912 14.4475L22.6258 14.5283L22.4606 14.611L22.2971 14.695L22.1339 14.7809L21.9723 14.8678L21.811 14.9568L21.6513 15.0468L21.4926 15.1385L21.3347 15.2318L21.178 15.3265L21.0222 15.4229L20.8679 15.5203L20.7143 15.6195L20.5621 15.72L20.4111 15.8218L20.261 15.9252L20.112 16.0301L19.9646 16.1359L19.818 16.2436L19.6727 16.3525L19.5287 16.4627L19.386 16.5741L19.2442 16.6871L19.104 16.8012L18.9651 16.9166L18.8272 17.0336L18.691 17.1514L18.5557 17.2708L18.4218 17.3914L18.2894 17.5131L18.1584 17.636L18.0284 17.7603L17.9002 17.8854L17.7732 18.0119L17.6474 18.1397L17.5232 18.2684L17.4003 18.3984L17.2789 18.5294L17.159 18.6615L17.0404 18.7947L16.9231 18.9291L16.8079 19.0643L16.6936 19.2007L16.5809 19.3382L16.4698 19.4765L16.3602 19.6157L16.2518 19.7563L16.1452 19.8975L16.0401 20.0398L15.9365 20.1831L15.8344 20.3272L15.734 20.472L15.6351 20.6179L15.5377 20.7648L15.4419 20.9124L15.3478 21.0607L15.2552 21.2099L15.1642 21.3602L15.0747 21.5108L14.987 21.6625L14.9008 21.8149L14.8164 21.9677L14.7334 22.1216L14.652 22.2762L14.5725 22.4312L14.4945 22.5872L14.4182 22.7437L14.3436 22.9007L14.2706 23.0585L14.1993 23.2168L14.1297 23.3757L14.0616 23.5352L13.9955 23.6952L13.9309 23.8557L13.868 24.0169L13.8067 24.1785L13.7474 24.3405L13.6894 24.5032L13.6335 24.666L13.5791 24.8294L13.5265 24.9933L13.4755 25.1576L13.4264 25.3221L13.3789 25.487L13.3332 25.6522L13.2892 25.8179L13.2469 25.9838L13.2064 26.15L13.1676 26.3166L13.1305 26.4832L13.0952 26.6503L13.0616 26.8175L13.0298 26.9848L12.9997 27.1525L12.9713 27.3202L12.9447 27.4882L12.9198 27.6561L12.8967 27.8243L12.8753 27.9926L12.8557 28.161L12.8378 28.3293L12.8216 28.4979L12.8072 28.6664L12.7945 28.8348L12.7836 29.0034L12.7744 29.1719L12.7669 29.3403L12.7612 29.5087L12.7572 29.677L12.7549 29.8452L12.7544 30.0135L12.7555 30.1815L12.7585 30.3493L12.7631 30.517L12.7694 30.6845L12.7775 30.8519L12.7873 31.0191L12.7987 31.1859L12.8119 31.3527L12.8268 31.5191L12.8434 31.6852L12.8617 31.8511L12.8816 32.0167L12.9033 32.182L12.9266 32.3468L12.9516 32.5114L12.9783 32.6754L13.0066 32.8393L13.0366 33.0028L13.0683 33.1656L13.1016 33.3282L13.1365 33.4902L13.1731 33.6519L13.2113 33.8129L13.2511 33.9735L13.2926 34.1337L13.3356 34.2933L13.3802 34.4522L13.4266 34.6108L13.4743 34.7686L13.5239 34.926L13.5748 35.0828L13.6274 35.2388L13.6816 35.3941L13.7372 35.5489L13.7945 35.7031L13.8533 35.8565L13.9136 36.0092L13.9754 36.1612L14.0387 36.3126L14.1036 36.4631L14.17 36.6129L14.2377 36.762L14.3071 36.9101L14.3779 37.0576L14.4501 37.2043L14.5238 37.3501L14.5989 37.4951L14.6754 37.6393L14.7534 37.7825L14.8327 37.925L14.9135 38.0665L14.9957 38.207L15.0793 38.3467L15.1642 38.4855L15.2505 38.6233L15.338 38.7601L15.4271 38.8961L15.5172 39.0309L15.6089 39.1649L15.7017 39.2977L15.7959 39.4297L15.8914 39.5605L15.9882 39.6903L16.0861 39.819L16.1854 39.9468L16.2858 40.0734L16.3875 40.1989L16.4904 40.3234L16.5945 40.4468L16.6998 40.5688L16.8063 40.6901L16.9138 40.8099L17.0226 40.9288L17.1324 41.0463L17.2434 41.1628L17.3555 41.278L17.4688 41.3921L17.583 41.505L17.6984 41.6167L17.8148 41.7272L17.9321 41.8363L18.0507 41.9444L18.1701 42.051L18.2906 42.1564L18.4121 42.2607L18.5346 42.3636L18.658 42.4653L18.7823 42.5655L18.9076 42.6645L19.0337 42.7622L19.1609 42.8587L19.2889 42.9538L19.4176 43.0475L19.5473 43.1399L19.6779 43.2309L19.8093 43.3206L19.9416 43.409L20.0745 43.4959L20.2083 43.5815L20.3429 43.6658L20.4781 43.7486L20.6142 43.8301L20.751 43.9101L20.8884 43.9886L21.0267 44.0658L21.1654 44.1415L21.305 44.216L21.4452 44.2889L21.5859 44.3602L21.7274 44.4304L21.8696 44.4989L22.0121 44.5662L22.1552 44.6318L22.2991 44.6961L22.4433 44.7588L22.5881 44.82L22.7334 44.8799L22.8793 44.9382L23.0255 44.9951L23.1723 45.0504L23.3195 45.1043L23.4672 45.1568L23.6152 45.2076L23.7637 45.2572L23.9126 45.3049L24.0618 45.3514L24.2114 45.3963L24.3613 45.4396L24.5114 45.4816L24.662 45.5219L24.8128 45.5609L24.9639 45.5982L25.1152 45.634L25.2668 45.6683L25.4187 45.7012L25.5707 45.7325L25.7229 45.7622L25.8754 45.7904L26.0278 45.8172L26.1806 45.8424L26.3335 45.866L26.4864 45.8882L26.6395 45.9089L26.7926 45.928L26.9458 45.9456L27.099 45.9617L27.2523 45.9762L27.4057 45.9893L27.559 46.0007L27.7124 46.0108L27.8656 46.0192L28.0188 46.0263L28.1721 46.0317L28.3252 46.0357L28.4781 46.0381L28.6311 46.039L28.7839 46.0385L28.9366 46.0364L29.0891 46.0329L29.2414 46.0279L29.3937 46.0213L29.5456 46.0132L29.6973 46.0038L29.8488 45.9927L30.0001 45.9802L30.1511 45.9662L30.3019 45.9508L30.4525 45.9339L30.6026 45.9155L30.7525 45.8957L30.902 45.8745L31.0512 45.8518L31.2 45.8275L31.3483 45.802L31.4965 45.7748L31.6441 45.7463L31.7913 45.7165L31.9382 45.6851L32.0844 45.6524L32.2303 45.6183L32.3757 45.5826L32.5206 45.5457L32.665 45.5074L32.8089 45.4676L32.9523 45.4265L33.0951 45.384L33.2373 45.3402L33.3789 45.295L33.5201 45.2484L33.6606 45.2004L33.8005 45.1512L33.9397 45.1006L34.0783 45.0487L34.2162 44.9955L34.3534 44.9409L34.4901 44.885L34.626 44.8279L34.7611 44.7694L34.8957 44.7098L35.0294 44.6488L35.1625 44.5865L35.2948 44.523L35.426 44.4585L35.557 44.3923L35.6868 44.3252L35.8161 44.2567L35.9441 44.1872L36.0716 44.1164L36.1984 44.0444L36.324 43.9712L36.449 43.8968L36.5731 43.8213L36.6961 43.7446L36.8185 43.6667L36.9397 43.5879L37.0601 43.5078L37.1798 43.4265L37.2983 43.3442L37.4157 43.261L37.5325 43.1763L37.6481 43.091L37.7628 43.0044L37.8766 42.9166L37.989 42.8281L38.1009 42.7383L38.2117 42.6475L38.3209 42.5559L38.4298 42.4629L38.5373 42.3693L38.6436 42.2748L38.7493 42.1788L38.8534 42.0824L38.9567 41.9849L39.0589 41.8864L39.1598 41.7871L39.2598 41.6867L39.3587 41.5855L39.4564 41.4834L39.5528 41.3805L39.6482 41.2767L39.7426 41.1721L39.8355 41.0668L39.9276 40.9603L40.0183 40.8533L40.1077 40.7455L40.1962 40.6366L40.2833 40.5274L40.3693 40.4171L40.4541 40.3062L40.5377 40.1944L40.6199 40.082L40.7009 39.9692L40.7809 39.8551L40.8594 39.7407L40.9367 39.6256L41.013 39.5097L41.0875 39.3935L41.1613 39.2763L41.2336 39.1585L41.3046 39.0403L41.3743 38.9214L41.4429 38.8018L41.5099 38.6821L41.5759 38.5612L41.6405 38.4402L41.7036 38.3187L41.7657 38.1962L41.8262 38.0741L41.8857 37.9505L41.9434 37.8274L42.0004 37.7029L42.0555 37.5787L42.1097 37.4535L42.1624 37.3284L42.2137 37.2027L42.2637 37.0765L42.3124 36.9499L42.3596 36.8233L42.4057 36.6959L42.4502 36.5684L42.4935 36.4406L42.5354 36.3125L42.576 36.1839L42.6153 36.0551L42.6531 35.9263L42.6895 35.7969L42.7245 35.6675L42.7584 35.5377L42.7907 35.4078L42.8217 35.2779L42.8514 35.1473L42.8796 35.0169L42.9066 34.8863L42.9321 34.7557L42.9563 34.6249L42.9791 34.4935L43.0005 34.3626L43.0206 34.2314L43.0392 34.1L43.0565 33.9689L43.0725 33.8375L43.0871 33.7057L43.1003 33.5749L43.1123 33.443L43.1228 33.3116L43.1319 33.1805L43.1397 33.049L43.1461 32.9177L43.1512 32.7866L43.1549 32.6551L43.1572 32.5244L43.1582 32.3931L43.1578 32.2623L43.1562 32.1314L43.1532 32.0011L43.1488 31.8705L43.143 31.7402L43.136 31.6104L43.1276 31.4802L43.1179 31.3505L43.107 31.2213L43.0946 31.0918L43.0809 30.9631L43.0658 30.8341L43.0496 30.7058L43.032 30.5776L43.0131 30.4496L42.9929 30.322L42.9715 30.1949L42.9487 30.0681L42.9246 29.9416L42.8992 29.815L42.8726 29.6894L42.8447 29.5641L42.8156 29.439L42.7851 29.3141L42.7536 29.1903L42.7206 29.0661L42.6865 28.943L42.6511 28.82L42.6145 28.6978L42.5767 28.5757L42.5375 28.4542L42.4973 28.3335L42.4559 28.2131L42.4131 28.0929L42.3694 27.9738L42.3243 27.8549L42.2781 27.7369L42.2307 27.6191L42.1821 27.5018L42.1325 27.3856L42.0815 27.2695L42.0296 27.1544L41.9765 27.0399L41.9221 26.9257L41.8666 26.8121L41.8103 26.6997L41.7526 26.5875L41.694 26.4763L41.6342 26.3658L41.5733 26.2555L41.5115 26.1465L41.4484 26.0378L41.3844 25.9301L41.3192 25.8229L41.2533 25.7168L41.1859 25.6109L41.1179 25.5063L41.0487 25.4024L40.9785 25.2992L40.9072 25.1966L40.835 25.095L40.7621 24.9944L40.6878 24.8941L40.6129 24.7951L40.5367 24.6967L40.4601 24.5994L40.382 24.5027L40.3032 24.407L40.2235 24.312L40.143 24.2179L40.0617 24.125L39.9791 24.0326L39.8961 23.9415L39.8119 23.8509L39.7273 23.7618L39.6413 23.673L39.5549 23.5855L39.4673 23.4986L39.3792 23.413L39.2904 23.3283L39.2007 23.2445L39.11 23.1616L39.0187 23.0798L38.9267 22.999L38.8337 22.9189L38.7407 22.8404L38.6463 22.7622L38.5514 22.6854L38.4558 22.6097L38.3594 22.5346L38.2625 22.4609L38.1652 22.3883L38.0667 22.3164L37.9675 22.2455L37.8684 22.1761L37.7679 22.1073L37.6675 22.0401L37.5662 21.9735L37.4642 21.908L37.3616 21.8436L37.2589 21.7805L37.155 21.7182L37.0511 21.6573L36.9462 21.5971L36.8414 21.5384L36.7357 21.4806L36.6295 21.4238L36.5229 21.3681L36.416 21.3138L36.3084 21.2603L36.2004 21.208L36.0921 21.1569L35.9836 21.107L35.874 21.0579L35.7648 21.0102L35.6549 20.9636L35.5444 20.918L35.4338 20.8736L35.323 20.8305L35.2117 20.7884L35.0998 20.7473L34.9881 20.7076L34.8758 20.6689L34.7631 20.6314L34.6507 20.595L34.5377 20.5599L34.4246 20.5258L34.3107 20.4928L34.1972 20.4611L34.0833 20.4305L33.9693 20.4011L33.8551 20.3727L33.7403 20.3456L33.6258 20.3196L33.5114 20.2949L33.3964 20.2712L33.2811 20.2485L33.1665 20.2274L33.0511 20.2071L32.9359 20.1881L32.8202 20.1701L32.7052 20.1535L32.5893 20.1378L32.4742 20.1236L32.3586 20.1102L32.2431 20.0981L32.1277 20.0872L32.012 20.0774L31.8969 20.0687L31.781 20.0613L31.6658 20.0549L31.5508 20.0497L31.435 20.0456L31.3201 20.0426L31.2051 20.0409L31.0902 20.0402L31.0117 20.0405L31.0712 25.066L31.1067 25.0661L31.1727 25.0671L31.2389 25.0686L31.3052 25.0708L31.3715 25.0738L31.4379 25.0774L31.5043 25.0817L31.5709 25.0868L31.6374 25.0925L31.7041 25.0989L31.7708 25.1059L31.8375 25.1136L31.9043 25.1222L31.971 25.1313L32.0378 25.1412L32.1046 25.1518L32.1715 25.1632L32.2381 25.1751L32.305 25.1879L32.3717 25.2012L32.4383 25.2155L32.505 25.2302L32.5717 25.2458L32.6382 25.2621L32.7047 25.279L32.7711 25.2967L32.8374 25.315L32.9037 25.3341L32.9699 25.3539L33.0359 25.3744L33.1018 25.3957L33.1677 25.4177L33.2333 25.4403L33.2989 25.4636L33.3643 25.4877L33.4295 25.5124L33.4946 25.5379L33.5595 25.5641L33.6242 25.591L33.6888 25.6185L33.7532 25.6469L33.8174 25.6759L33.8814 25.7056L33.9452 25.7361L34.0087 25.7671L34.072 25.7989L34.135 25.8315L34.1978 25.8647L34.2604 25.8986L34.3227 25.9332L34.3847 25.9685L34.4465 26.0044L34.5078 26.041L34.5691 26.0784L34.6299 26.1165L34.6905 26.1552L34.7506 26.1945L34.8105 26.2346L34.8702 26.2754L34.9294 26.3168L34.9882 26.3589L35.0468 26.4016L35.105 26.445L35.1627 26.4891L35.2201 26.5338L35.2772 26.5792L35.3338 26.6253L35.39 26.6718L35.4459 26.7192L35.5012 26.7672L35.5562 26.8157L35.6108 26.865L35.6648 26.9149L35.7185 26.9654L35.7716 27.0165L35.8244 27.0683L35.8766 27.1206L35.9284 27.1735L35.9798 27.2271L36.0305 27.2812L36.0808 27.3361L36.1306 27.3914L36.18 27.4474L36.2287 27.5039L36.2769 27.561L36.3247 27.6187L36.3718 27.677L36.4184 27.7358L36.4644 27.7952L36.51 27.8552L36.555 27.9156L36.5993 27.9767L36.6429 28.0382L36.6862 28.1004L36.7288 28.1631L36.7707 28.2263L36.8121 28.2899L36.853 28.3542L36.8931 28.4189L36.9326 28.4842L36.9715 28.5499L37.0097 28.6161L37.0473 28.6828L37.0842 28.75L37.1205 28.8176L37.1562 28.8858L37.1911 28.9543L37.2254 29.0233L37.259 29.0927L37.2919 29.1628L37.3241 29.233L37.3556 29.3039L37.3865 29.3751L37.4166 29.4467L37.446 29.5187L37.4746 29.5911L37.5026 29.6639L37.5299 29.7371L37.5564 29.8107L37.582 29.8848L37.6071 29.959L37.6313 30.0337L37.6547 30.1088L37.6775 30.1841L37.6995 30.2599L37.7206 30.336L37.7411 30.4123L37.7608 30.489L37.7796 30.566L37.7977 30.6434L37.815 30.7208L37.8315 30.7988L37.8472 30.877L37.862 30.9552L37.8761 31.034L37.8894 31.113L37.9019 31.192L37.9135 31.2715L37.9243 31.3511L37.9343 31.431L37.9434 31.5111L37.9518 31.5914L37.9593 31.6718L37.9659 31.7524L37.9718 31.8334L37.9767 31.9143L37.9809 31.9955L37.984 32.0768L37.9866 32.1583L37.988 32.2399L37.9888 32.3216L37.9886 32.4034L37.9876 32.4854L37.9858 32.5675L37.983 32.6496L37.9794 32.7319L37.9749 32.8141L37.9695 32.8965L37.9633 32.9789L37.9561 33.0615L37.9481 33.144L37.9393 33.2265L37.9295 33.3091L37.9188 33.3917L37.9074 33.4744L37.895 33.5569L37.8817 33.6394L37.8674 33.722L37.8524 33.8045L37.8364 33.887L37.8197 33.9694L37.8018 34.0518L37.7832 34.1341L37.7637 34.2163L37.7432 34.2985L37.7219 34.3806L37.6999 34.4625L37.6767 34.5443L37.6527 34.6259L37.6278 34.7075L37.6021 34.789L37.5755 34.8702L37.548 34.9514L37.5196 35.0323L37.4902 35.113L37.46 35.1936L37.429 35.2739L37.397 35.3542L37.3641 35.434L37.3305 35.5138L37.2959 35.5933L37.2603 35.6726L37.224 35.7515L37.1867 35.8302L37.1485 35.9087L37.1096 35.9869L37.0697 36.0647L37.029 36.1423L36.9873 36.2195L36.9448 36.2965L36.9016 36.3731L36.8574 36.4494L36.8123 36.5254L36.7665 36.6009L36.7196 36.6762L36.6721 36.7511L36.6236 36.8255L36.5743 36.8996L36.5242 36.9732L36.4732 37.0466L36.4214 37.1194L36.3687 37.1918L36.3154 37.2638L36.261 37.3353L36.2059 37.4064L36.15 37.477L36.0933 37.5472L36.0358 37.6168L35.9775 37.686L35.9184 37.7547L35.8584 37.8229L35.7977 37.8905L35.7362 37.9577L35.6739 38.0243L35.6109 38.0903L35.547 38.1559L35.4825 38.2209L35.4171 38.2852L35.3511 38.3491L35.2841 38.4123L35.2165 38.4748L35.1482 38.5369L35.0792 38.5984L35.0094 38.6592L34.9389 38.7194L34.8676 38.7789L34.7956 38.8378L34.7229 38.8961L34.6496 38.9537L34.5756 39.0106L34.5009 39.0669L34.4254 39.1226L34.3494 39.1774L34.2726 39.2316L34.1953 39.2852L34.1172 39.3379L34.0385 39.3901L33.9592 39.4414L33.8791 39.4921L33.7985 39.542L33.7173 39.5911L33.6354 39.6394L33.553 39.6871L33.47 39.734L33.3862 39.78L33.3021 39.8254L33.2173 39.8699L33.132 39.9137L33.046 39.9565L32.9596 39.9987L32.8726 40.04L32.785 40.0804L32.697 40.1201L32.6083 40.1588L32.5193 40.1969L32.4297 40.2341L32.3396 40.2703L32.2489 40.3057L32.1579 40.3403L32.0663 40.374L31.9743 40.4068L31.8819 40.4388L31.789 40.4698L31.6957 40.5L31.602 40.5292L31.5079 40.5575L31.4133 40.5851L31.3183 40.6116L31.223 40.6372L31.1273 40.6619L31.0312 40.6857L30.9347 40.7085L30.8379 40.7304L30.7408 40.7513L30.6433 40.7714L30.5455 40.7905L30.4474 40.8086L30.349 40.8257L30.2503 40.842L30.1514 40.8571L30.0521 40.8714L29.9526 40.8847L29.8528 40.8971L29.7528 40.9084L29.6526 40.9186L29.5521 40.9281L29.4515 40.9363L29.3506 40.9438L29.2494 40.9501L29.1482 40.9555L29.0468 40.9599L28.9452 40.9632L28.8434 40.9655L28.7416 40.9668L28.6396 40.9672L28.5375 40.9666L28.4353 40.9648L28.3329 40.962L28.2306 40.9583L28.1281 40.9535L28.0254 40.9477L27.9228 40.9409L27.8202 40.933L27.7175 40.9241L27.6148 40.9141L27.5122 40.9032L27.4094 40.8911L27.3068 40.878L27.204 40.8639L27.1014 40.8489L26.9987 40.8327L26.8962 40.8155L26.7938 40.7972L26.6914 40.7779L26.589 40.7577L26.4868 40.7363L26.3847 40.7139L26.2827 40.6904L26.1809 40.6659L26.0791 40.6404L25.9775 40.6138L25.8762 40.5861L25.7749 40.5575L25.674 40.5278L25.5731 40.4971L25.4725 40.4653L25.3721 40.4325L25.2719 40.3987L25.1721 40.3638L25.0724 40.3279L24.9729 40.2909L24.8739 40.253L24.775 40.214L24.6765 40.1739L24.5782 40.1329L24.4804 40.0908L24.3828 40.0477L24.2855 40.0036L24.1888 39.9585L24.0921 39.9123L23.996 39.8652L23.9003 39.817L23.805 39.7679L23.7101 39.7177L23.6156 39.6666L23.5215 39.6144L23.4279 39.5613L23.3346 39.5071L23.2419 39.452L23.1497 39.396L23.058 39.3389L22.9667 39.2808L22.8759 39.2219L22.7856 39.1618L22.6959 39.1009L22.6069 39.039L22.5182 38.9761L22.4301 38.9124L22.3426 38.8476L22.2557 38.7819L22.1695 38.7154L22.0837 38.6478L21.9987 38.5793L21.9141 38.51L21.8303 38.4397L21.7471 38.3685L21.6646 38.2963L21.5827 38.2234L21.5015 38.1495L21.421 38.0747L21.3411 37.9991L21.262 37.9226L21.1835 37.8452L21.1059 37.767L21.029 37.6879L20.9527 37.6079L20.8772 37.5272L20.8025 37.4455L20.7287 37.3631L20.6554 37.2799L20.5832 37.1958L20.5116 37.111L20.4407 37.0253L20.3709 36.9387L20.3018 36.8516L20.2335 36.7636L20.166 36.6748L20.0994 36.5852L20.0338 36.4949L19.969 36.4039L19.905 36.312L19.8419 36.2195L19.7797 36.1264L19.7185 36.0324L19.6582 35.9377L19.5987 35.8424L19.5402 35.7465L19.4826 35.6497L19.426 35.5524L19.3704 35.4543L19.3157 35.3556L19.2619 35.2563L19.2092 35.1564L19.1574 35.0557L19.1066 34.9546L19.0568 34.8529L19.0081 34.7504L18.9603 34.6475L18.9135 34.5439L18.8679 34.4398L18.8232 34.3351L18.7795 34.2299L18.7369 34.1241L18.6954 34.0179L18.6549 33.911L18.6156 33.8037L18.5773 33.6959L18.54 33.5877L18.5038 33.4789L18.4688 33.3696L18.4349 33.2599L18.402 33.1499L18.3702 33.0392L18.3396 32.9282L18.3102 32.8168L18.2817 32.705L18.2545 32.5928L18.2284 32.4803L18.2034 32.3673L18.1796 32.254L18.1569 32.1403L18.1354 32.0264L18.115 31.9121L18.0958 31.7974L18.0779 31.6826L18.061 31.5673L18.0453 31.4519L18.0309 31.3361L18.0176 31.2201L18.0055 31.1038L17.9945 30.9873L17.9848 30.8706L17.9763 30.7537L17.969 30.6366L17.9629 30.5193L17.9579 30.4019L17.9542 30.2842L17.9518 30.1664L17.9506 30.0486L17.9505 29.9305L17.9517 29.8123L17.9542 29.6941L17.9578 29.5758L17.9627 29.4573L17.9689 29.3389L17.9762 29.2204L17.9847 29.1018L17.9945 28.9832L18.0056 28.8646L18.0178 28.746L18.0314 28.6274L18.0462 28.5088L18.0622 28.3903L18.0795 28.2718L18.098 28.1534L18.1178 28.035L18.1387 27.9167L18.1609 27.7985L18.1845 27.6804L18.2093 27.5625L18.2352 27.4447L18.2624 27.327L18.2909 27.2096L18.3205 27.0922L18.3516 26.9751L18.3838 26.8582L18.4172 26.7415L18.4518 26.6249L18.4877 26.5086L18.5249 26.3926L18.5632 26.2768L18.6029 26.1614L18.6437 26.0461L18.6858 25.9312L18.7291 25.8166L18.7736 25.7024L18.8194 25.5884L18.8664 25.4748L18.9146 25.3616L18.964 25.2488L19.0147 25.1363L19.0665 25.0242L19.1196 24.9125L19.1738 24.8014L19.2293 24.6905L19.2859 24.5801L19.3438 24.4703L19.4027 24.3609L19.463 24.252L19.5244 24.1435L19.587 24.0356L19.6507 23.9283L19.7157 23.8214L19.7817 23.715L19.8491 23.6093L19.9175 23.5041L19.987 23.3994L20.0576 23.2955L20.1295 23.192L20.2025 23.0893L20.2766 22.9872L20.3518 22.8856L20.4281 22.7847L20.5056 22.6846L20.5841 22.5851L20.6638 22.4863L20.7446 22.388L20.8264 22.2907L20.9093 22.194L20.9933 22.098L21.0783 22.0028L21.1645 21.9083L21.2517 21.8147L21.3399 21.7218L21.4292 21.6297L21.5195 21.5384L21.6108 21.4479L21.7032 21.3582L21.7965 21.2694L21.8909 21.1814L21.9862 21.0942L22.0824 21.0079L22.1797 20.9225L22.2781 20.8381L22.3772 20.7544L22.4775 20.6717L22.5785 20.59L22.6806 20.509L22.7835 20.4292L22.8875 20.3502L22.9922 20.2722L23.0979 20.1952L23.2045 20.1192L23.312 20.0441L23.4203 19.9699L23.5296 19.8969L23.6395 19.8249L23.7504 19.7539L23.8622 19.6839L23.9747 19.6149L24.0881 19.547L24.2022 19.4802L24.3172 19.4145L24.4329 19.3498L24.5494 19.2861L24.6666 19.2237L24.7846 19.1624L24.9033 19.1021L25.0227 19.043L25.1429 18.9849L25.2638 18.9281L25.3853 18.8723L25.5075 18.8177L25.6304 18.7644L25.754 18.712L25.8782 18.6609L26.0029 18.6111L26.1285 18.5624L26.2545 18.5149L26.3811 18.4686L26.5084 18.4236L26.6363 18.3797L26.7646 18.3371L26.8936 18.2957L27.023 18.2555L27.153 18.2166L27.2835 18.1789L27.4145 18.1426L27.546 18.1074L27.6779 18.0735L27.8103 18.0409L27.9432 18.0096L28.0765 17.9797L28.2102 17.9509L28.3444 17.9235L28.4788 17.8974L28.5463 17.8849ZM30.1994 27.5492L28.6652 27.9158L28.5751 20.3158L28.5028 20.332L28.3939 20.3577L28.2851 20.3845L28.1772 20.4121L28.0694 20.4409L27.9622 20.4707L27.8551 20.5017L27.749 20.5334L27.6426 20.5664L27.5376 20.6001L27.4323 20.6351L27.3277 20.671L27.2236 20.7079L27.1199 20.7457L27.0171 20.7845L26.9145 20.8244L26.8124 20.8651L26.711 20.9068L26.6097 20.9496L26.5097 20.993L26.4097 21.0378L26.3107 21.0832L26.2118 21.1297L26.1138 21.177L26.0161 21.2253L25.9195 21.2744L25.8232 21.3245L25.7277 21.3755L25.6328 21.4272L25.5384 21.48L25.4447 21.5336L25.352 21.5879L25.2592 21.6434L25.1677 21.6995L25.0769 21.7564L24.9866 21.8142L24.8969 21.8729L24.8081 21.9324L24.72 21.9927L24.6326 22.0537L24.546 22.1154L24.4599 22.1781L24.3747 22.2416L24.2903 22.3058L24.2066 22.3707L24.1238 22.4362L24.0418 22.5027L23.9603 22.5699L23.8797 22.6379L23.8001 22.7063L23.7211 22.7757L23.643 22.8456L23.5657 22.9162L23.4891 22.9877L23.4135 23.0597L23.3387 23.1323L23.2646 23.2058L23.1915 23.2796L23.1192 23.3543L23.0479 23.4294L22.977 23.5055L22.9074 23.5818L22.8386 23.6589L22.7706 23.7366L22.7036 23.8146L22.6373 23.8935L22.5723 23.9726L22.5077 24.0527L22.4443 24.133L22.3816 24.2141L22.32 24.2957L22.2593 24.3775L22.1994 24.4599L22.1406 24.5429L22.0825 24.6265L22.0254 24.7103L21.9694 24.7948L21.9143 24.8795L21.8601 24.9647L21.8067 25.0505L21.7545 25.1365L21.703 25.2233L21.6527 25.31L21.6032 25.3974L21.5546 25.4852L21.5072 25.5731L21.4606 25.6615L21.4151 25.7503L21.3704 25.8396L21.3269 25.9288L21.2841 26.0188L21.2425 26.1088L21.2019 26.1992L21.1621 26.2898L21.1233 26.3809L21.0857 26.4719L21.0489 26.5635L21.0133 26.6552L20.9784 26.7472L20.9447 26.8392L20.912 26.9317L20.8801 27.0243L20.8494 27.1171L20.8196 27.21L20.7908 27.3033L20.763 27.3966L20.7364 27.4899L20.7106 27.5837L20.6857 27.6775L20.662 27.7713L20.6392 27.8653L20.6174 27.9594L20.5966 28.0537L20.5769 28.1481L20.5581 28.2423L20.5403 28.3367L20.5235 28.4313L20.5078 28.5257L20.493 28.6202L20.4792 28.715L20.4664 28.8094L20.4547 28.9041L20.4439 28.9985L20.4341 29.0931L20.4253 29.1879L20.4174 29.2823L20.4107 29.3768L20.4048 29.4713L20.3999 29.5656L20.396 29.6598L20.3931 29.7539L20.3912 29.8482L20.3902 29.9421L20.3903 30.036L20.3912 30.1297L20.3932 30.2234L20.3961 30.3168L20.4 30.4102L20.4048 30.5033L20.4107 30.5962L20.4174 30.689L20.4252 30.7817L20.4338 30.874L20.4434 30.9664L20.4539 31.0581L20.4654 31.1501L20.4777 31.2414L20.4912 31.3329L20.5054 31.4238L20.5206 31.5146L20.5367 31.6052L20.5537 31.6953L20.5717 31.7853L20.5905 31.8748L20.6103 31.9642L20.631 32.0531L20.6525 32.1419L20.6749 32.2301L20.6983 32.3183L20.7224 32.4058L20.7474 32.4932L20.7734 32.58L20.8001 32.6667L20.8278 32.7528L20.8563 32.8384L20.8857 32.924L20.9159 33.0089L20.947 33.0933L20.9788 33.1775L21.0115 33.2613L21.0451 33.3445L21.0794 33.4273L21.1144 33.5095L21.1505 33.5915L21.1872 33.673L21.2248 33.7539L21.2631 33.8343L21.3021 33.9142L21.3422 33.9939L21.3826 34.0727L21.424 34.1511L21.4662 34.2291L21.5092 34.3065L21.5529 34.3834L21.5972 34.4598L21.6423 34.5354L21.6883 34.6108L21.7347 34.6854L21.782 34.7594L21.83 34.833L21.8786 34.906L21.928 34.9785L21.9779 35.05L22.0286 35.1214L22.08 35.1919L22.1319 35.2618L22.1848 35.3313L22.238 35.4L22.2919 35.468L22.3465 35.5355L22.4017 35.6024L22.4574 35.6685L22.514 35.7341L22.5709 35.799L22.6284 35.8632L22.6869 35.9268L22.7454 35.9895L22.8048 36.052L22.8647 36.1134L22.925 36.1743L22.9861 36.2345L23.0476 36.2939L23.1096 36.3528L23.1722 36.4108L23.2353 36.4682L23.2989 36.5249L23.3629 36.5808L23.4275 36.636L23.4925 36.6906L23.5579 36.7444L23.624 36.7975L23.6905 36.8498L23.7572 36.9013L23.8246 36.9522L23.8923 37.0024L23.9605 37.0518L24.029 37.1003L24.098 37.1483L24.1673 37.1954L24.2371 37.2417L24.3071 37.2872L24.3775 37.3321L24.4486 37.3763L24.5197 37.4194L24.5912 37.462L24.6632 37.5038L24.7352 37.5447L24.8076 37.5849L24.8807 37.6244L24.9538 37.663L25.0271 37.7008L25.1007 37.7378L25.1749 37.7741L25.2489 37.8096L25.3235 37.8443L25.3982 37.8782L25.473 37.9113L25.5484 37.9436L25.6238 37.9751L25.6993 38.0059L25.7752 38.0358L25.8512 38.0649L25.9276 38.0932L26.0037 38.1208L26.0805 38.1475L26.1571 38.1734L26.2339 38.1985L26.311 38.2229L26.3882 38.2464L26.4654 38.2691L26.5427 38.291L26.6203 38.3121L26.6979 38.3324L26.7755 38.3519L26.8533 38.3706L26.931 38.3885L27.0089 38.4055L27.0869 38.4219L27.1649 38.4373L27.2429 38.4521L27.3209 38.4659L27.399 38.4791L27.4771 38.4914L27.5553 38.5029L27.6332 38.5136L27.7113 38.5234L27.7893 38.5326L27.8674 38.541L27.9454 38.5485L28.0234 38.5552L28.1013 38.5612L28.179 38.5664L28.2569 38.5708L28.3345 38.5744L28.412 38.5773L28.4897 38.5793L28.5669 38.5807L28.6441 38.5812L28.7213 38.5809L28.7983 38.58L28.8754 38.5781L28.9522 38.5756L29.0286 38.5724L29.105 38.5683L29.1815 38.5635L29.2574 38.5579L29.3334 38.5517L29.409 38.5446L29.4846 38.5369L29.5599 38.5282L29.6349 38.519L29.71 38.5091L29.7845 38.4983L29.8588 38.4868L29.9332 38.4747L30.0071 38.4618L30.0807 38.4482L30.1542 38.4339L30.2274 38.4188L30.3 38.4031L30.3725 38.3867L30.4449 38.3696L30.5169 38.3517L30.5885 38.3334L30.6598 38.3142L30.7308 38.2943L30.8017 38.2737L30.872 38.2526L30.9418 38.2307L31.0118 38.2081L31.081 38.1849L31.15 38.1612L31.2185 38.1367L31.2867 38.1116L31.3547 38.0858L31.4222 38.0594L31.4891 38.0324L31.5558 38.0048L31.6221 37.9765L31.6881 37.9476L31.7534 37.9182L31.8186 37.8881L31.8831 37.8575L31.9472 37.8262L32.0111 37.7944L32.0742 37.762L32.1371 37.729L32.1995 37.6954L32.2614 37.6613L32.3228 37.6267L32.3839 37.5914L32.4445 37.5556L32.5044 37.5192L32.5639 37.4824L32.623 37.445L32.6815 37.4072L32.7397 37.3687L32.7972 37.3298L32.8543 37.2903L32.9109 37.2504L32.9668 37.21L33.0223 37.169L33.0773 37.1276L33.1317 37.0857L33.1856 37.0434L33.2391 37.0005L33.2919 36.9574L33.3442 36.9137L33.3958 36.8695L33.4469 36.8249L33.4977 36.7799L33.5477 36.7344L33.5972 36.6886L33.6459 36.6424L33.6944 36.5957L33.7422 36.5486L33.7894 36.5012L33.836 36.4534L33.8819 36.4051L33.9273 36.3566L33.9723 36.3075L34.0164 36.2584L34.0602 36.2086L34.1032 36.1586L34.1455 36.1084L34.1876 36.0575L34.2286 36.0067L34.2693 35.9553L34.3094 35.9038L34.3486 35.8519L34.3875 35.7996L34.4256 35.7473L34.4631 35.6943L34.5001 35.6412L34.5363 35.5881L34.572 35.5343L34.6071 35.4805L34.6413 35.4265L34.6752 35.3722L34.7083 35.3176L34.7408 35.2627L34.7727 35.2078L34.8039 35.1525L34.8345 35.0971L34.8644 35.0414L34.8937 34.9857L34.9223 34.9297L34.9504 34.8735L34.9779 34.8172L35.0046 34.7605L35.0307 34.7039L35.0561 34.6471L35.0809 34.5903L35.1051 34.533L35.1285 34.4759L35.1516 34.4183L35.1737 34.3612L35.1954 34.3031L35.2161 34.246L35.2365 34.188L35.2562 34.13L35.2751 34.0722L35.2935 34.0141L35.3112 33.9562L35.3283 33.8977L35.3446 33.8399L35.3605 33.7812L35.3756 33.7234L35.3901 33.6649L35.4039 33.6063L35.4171 33.5481L35.4296 33.4901L35.4416 33.4312L35.4529 33.3731L35.4636 33.3144L35.4736 33.2563L35.483 33.198L35.4918 33.1396L35.4999 33.0812L35.5074 33.0229L35.5143 32.9648L35.5205 32.9069L35.5261 32.8485L35.5312 32.7906L35.5356 32.7325L35.5393 32.6746L35.5425 32.6169L35.545 32.5592L35.5469 32.5019L35.5482 32.4441L35.549 32.3865L35.5492 32.3294L35.5486 32.2722L35.5476 32.2153L35.5458 32.1584L35.5436 32.1013L35.5406 32.0453L35.5372 31.9881L35.5332 31.9323L35.5285 31.8762L35.5233 31.8198L35.5175 31.764L35.5112 31.7088L35.5042 31.6527L35.4967 31.5979L35.4886 31.5427L35.4801 31.4882L35.4708 31.4332L35.461 31.3787L35.4508 31.3246L35.44 31.2707L35.4286 31.2167L35.4166 31.1633L35.4042 31.1099L35.3912 31.0569L35.3777 31.0044L35.3635 30.9514L35.3491 30.8995L35.3339 30.847L35.3184 30.7955L35.3022 30.744L35.2856 30.6929L35.2684 30.6419L35.2507 30.591L35.2328 30.541L35.2141 30.4911L35.195 30.441L35.1754 30.3918L35.1553 30.3423L35.1349 30.2939L35.1138 30.2451L35.0925 30.197L35.0705 30.1494L35.0481 30.1017L35.0254 30.0546L35.0021 30.0078L34.9784 29.9612L34.9543 29.9151L34.9297 29.8693L34.9048 29.8239L34.8793 29.7788L34.8534 29.7341L34.8273 29.6898L34.8007 29.6458L34.7735 29.602L34.7461 29.559L34.7183 29.5162L34.6901 29.4737L34.6614 29.4315L34.6326 29.39L34.6031 29.3486L34.5735 29.3077L34.5434 29.2673L34.5129 29.2272L34.4823 29.1875L34.451 29.1481L34.4196 29.1094L34.3878 29.0709L34.3557 29.0328L34.3232 28.9952L34.2906 28.958L34.2575 28.9213L34.224 28.885L34.1904 28.8489L34.1564 28.8135L34.1221 28.7785L34.0875 28.7437L34.0527 28.7097L34.0176 28.676L33.9823 28.6427L33.9464 28.6097L33.9107 28.5773L33.8745 28.5453L33.8382 28.5138L33.8014 28.4827L33.7645 28.4522L33.7274 28.422L33.6901 28.3923L33.6526 28.363L33.6148 28.3341L33.5769 28.3059L33.5387 28.278L33.5002 28.2505L33.4617 28.2237L33.423 28.197L33.3841 28.1711L33.345 28.1455L33.3056 28.1204L33.2663 28.0957L33.2265 28.0715L33.1868 28.0478L33.147 28.0247L33.107 28.0019L33.0666 27.9795L33.0264 27.9577L32.9861 27.9363L32.9455 27.9154L32.905 27.895L32.864 27.8749L32.8233 27.8555L32.7823 27.8366L32.7413 27.8179L32.7002 27.7998L32.6588 27.7821L32.6178 27.7651L32.5763 27.7485L32.5347 27.7322L32.4933 27.7165L32.4518 27.7012L32.4103 27.6864L32.3686 27.672L32.3269 27.6581L32.2854 27.6448L32.2436 27.6317L32.2018 27.6192L32.1603 27.6072L32.1182 27.5956L32.0767 27.5846L32.0349 27.5739L31.9931 27.5637L31.9513 27.554L31.9096 27.5447L31.8678 27.5359L31.8262 27.5275L31.7846 27.5195L31.7431 27.512L31.7013 27.505L31.66 27.4985L31.6182 27.4923L31.5771 27.4866L31.5356 27.4813L31.4943 27.4765L31.4533 27.4721L31.4121 27.4683L31.3711 27.4647L31.3301 27.4616L31.2892 27.4589L31.2483 27.4567L31.2076 27.4549L31.1673 27.4536L31.1267 27.4525L31.0863 27.452L31.046 27.4519L31.0059 27.4523L30.9659 27.4529L30.9261 27.454L30.8863 27.4556L30.8469 27.4575L30.8072 27.4599L30.7681 27.4625L30.7289 27.4656L30.6899 27.4692L30.6512 27.473L30.6123 27.4773L30.574 27.482L30.5357 27.487L30.4976 27.4925L30.4595 27.4983L30.4218 27.5045L30.3842 27.511L30.347 27.5179L30.3096 27.5252L30.2728 27.5328L30.2359 27.5408L30.1994 27.5492Z" fill="#E4E4E4"/>
</svg>
