<svg width="187" height="40" viewBox="0 0 187 40" fill="none" xmlns="http://www.w3.org/2000/svg">
<path d="M29.8418 17.798C29.3373 18.3056 28.951 18.9182 28.7103 19.592C28.4697 20.2659 28.3806 20.9846 28.4494 21.6969L28.4255 21.6729C28.4963 22.5114 28.3831 23.355 28.0942 24.1453C27.8052 24.9355 27.3473 25.6531 26.7524 26.2481C26.1574 26.843 25.4398 27.301 24.6495 27.5898C23.8593 27.8788 23.0156 27.992 22.1772 27.9212L22.2012 27.9451C21.1983 27.8518 20.1911 28.07 19.3166 28.5701C18.4424 29.0702 17.7435 29.8277 17.3156 30.7395C16.8876 31.6513 16.7512 32.6728 16.925 33.6651C17.099 34.6571 17.5746 35.5715 18.2872 36.2834C18.9997 36.9952 19.9145 37.4701 20.9067 37.643C21.899 37.816 22.9204 37.6786 23.8318 37.2499C24.7432 36.821 25.5001 36.1216 25.9994 35.2468C26.4987 34.372 26.7161 33.3646 26.6218 32.3618L26.6471 32.3857C26.5763 31.5474 26.6893 30.7036 26.9783 29.9133C27.2673 29.1232 27.7253 28.4056 28.3202 27.8105C28.9152 27.2157 29.6328 26.7576 30.4229 26.4688C31.2132 26.1798 32.0569 26.0667 32.8954 26.1375L32.8701 26.1135C33.6892 26.1871 34.5139 26.0528 35.2674 25.723C36.0208 25.3931 36.6789 24.8784 37.1805 24.2265C37.6821 23.5747 38.0111 22.8066 38.1368 21.9938C38.2626 21.1809 38.1811 20.3495 37.9 19.5764C37.6188 18.8034 37.1471 18.1139 36.5285 17.5717C35.9099 17.0296 35.1645 16.6523 34.3613 16.475C33.5581 16.2977 32.7231 16.3259 31.9338 16.5572C31.1444 16.7885 30.4263 17.2153 29.8458 17.798H29.8418Z" fill="#E4E4E4"/>
<path d="M20.0223 24.8069L19.997 24.783C20.7096 24.8547 21.4292 24.7673 22.1039 24.5269C22.7785 24.2865 23.3914 23.8992 23.898 23.393C24.4045 22.8868 24.7924 22.2742 25.0332 21.5997C25.2741 20.9253 25.3621 20.2058 25.2909 19.4931L25.3162 19.5171C25.2453 18.6786 25.3585 17.8349 25.6473 17.0447C25.9363 16.2545 26.3944 15.5369 26.9892 14.9419C27.5843 14.347 28.3019 13.889 29.092 13.6001C29.8823 13.3111 30.726 13.198 31.5644 13.2688L31.5391 13.2449C32.5421 13.3391 33.5497 13.1215 34.4245 12.622C35.2994 12.1225 35.9988 11.3653 36.4274 10.4536C36.856 9.54201 36.993 8.52034 36.8197 7.52798C36.6464 6.53561 36.1711 5.6209 35.4587 4.90857C34.7465 4.19625 33.8317 3.72098 32.8394 3.54765C31.847 3.37429 30.8254 3.51128 29.9137 3.93993C29.002 4.36856 28.2449 5.06799 27.7453 5.94282C27.2458 6.81763 27.0282 7.82524 27.1225 8.82821L27.0985 8.80292C27.1695 9.64137 27.0566 10.4852 26.7677 11.2755C26.4789 12.0658 26.0209 12.7836 25.426 13.3786C24.831 13.9735 24.1132 14.4315 23.323 14.7204C22.5325 15.0092 21.6887 15.1221 20.8503 15.0512L20.8742 15.0765C20.1617 15.0047 19.442 15.0922 18.7673 15.3326C18.0927 15.5728 17.4799 15.9602 16.9733 16.4664C16.4666 16.9726 16.0789 17.5852 15.838 18.2597C15.5972 18.9342 15.5092 19.6536 15.5804 20.3663L15.5564 20.3424C15.627 21.1807 15.5137 22.0244 15.2247 22.8145C14.9356 23.6045 14.4777 24.3221 13.8828 24.917C13.2879 25.5119 12.5704 25.9698 11.7803 26.2589C10.9902 26.5479 10.1465 26.6612 9.30817 26.5906L9.33213 26.6146C8.32916 26.5203 7.32154 26.7378 6.44672 27.2374C5.57191 27.737 4.87248 28.4941 4.44384 29.4058C4.0152 30.3175 3.8782 31.3391 4.05155 32.3315C4.2249 33.3238 4.70016 34.2385 5.41248 34.9508C6.12482 35.6632 7.03953 36.1384 8.03189 36.3118C9.02425 36.4851 10.0459 36.3481 10.9576 35.9195C11.8692 35.4909 12.6264 34.7915 13.1259 33.9167C13.6255 33.0417 13.843 32.0342 13.7488 31.0312L13.7741 31.0552C13.7032 30.2167 13.8164 29.3731 14.1054 28.5828C14.3942 27.7926 14.8523 27.075 15.4471 26.48C16.0421 25.8851 16.7598 25.4271 17.5499 25.1382C18.3402 24.8493 19.1838 24.7361 20.0223 24.8069Z" fill="#E4E4E4"/>
<path d="M11.1018 22.135C11.6063 21.6276 11.9926 21.015 12.2331 20.3411C12.4735 19.6671 12.5622 18.9483 12.4928 18.2362L12.5181 18.2601C12.4473 17.4215 12.5604 16.5775 12.8495 15.787C13.1387 14.9966 13.5969 14.2789 14.1921 13.6839C14.7874 13.0889 15.5053 12.631 16.2958 12.3422C17.0864 12.0534 17.9304 11.9407 18.769 12.0119L18.7438 11.9879C19.7464 12.0818 20.7536 11.8642 21.628 11.3647C22.5024 10.8653 23.2014 10.1082 23.6299 9.19686C24.0582 8.2855 24.1951 7.2642 24.0218 6.27221C23.8485 5.28022 23.3732 4.36585 22.6612 3.65379C21.9492 2.94172 21.0347 2.46662 20.0428 2.29328C19.0508 2.11993 18.0295 2.25679 17.1182 2.68517C16.2068 3.11355 15.4498 3.81262 14.9503 4.68703C14.4508 5.56144 14.2331 6.56864 14.3271 7.57126L14.3032 7.5473C14.374 8.3857 14.2608 9.22946 13.9718 10.0197C13.6829 10.8099 13.225 11.5275 12.63 12.1224C12.0351 12.7174 11.3174 13.1753 10.5272 13.4642C9.73704 13.7532 8.8933 13.8664 8.0549 13.7956L8.07886 13.8195C7.25965 13.746 6.43514 13.8806 5.68176 14.2106C4.92837 14.5406 4.27047 15.0555 3.76902 15.7074C3.26758 16.3593 2.93882 17.1273 2.81319 17.9401C2.68757 18.753 2.76916 19.5844 3.05038 20.3573C3.33161 21.1303 3.80339 21.8197 4.422 22.3617C5.04061 22.9038 5.78604 23.281 6.58921 23.4583C7.39236 23.6354 8.22728 23.6071 9.01659 23.3759C9.80589 23.1445 10.524 22.7178 11.1045 22.135H11.1018Z" fill="#E4E4E4"/>
<path d="M52.3359 8.85791H56.2893V28.0965H52.3359V8.85791Z" fill="#E4E4E4"/>
<path d="M58.5275 21.5094C58.5221 20.1269 58.927 18.7737 59.6911 17.6215C60.4551 16.4692 61.544 15.5697 62.8197 15.0368C64.0955 14.5038 65.5006 14.3615 66.8573 14.6279C68.2139 14.8943 69.4611 15.5572 70.4406 16.5329C71.4202 17.5084 72.0881 18.7529 72.36 20.1085C72.6318 21.4641 72.4951 22.8699 71.9673 24.1478C71.4395 25.4255 70.5443 26.5181 69.3952 27.2867C68.2459 28.0554 66.8945 28.4658 65.5119 28.4658C64.5942 28.4763 63.6836 28.3037 62.8333 27.9581C61.983 27.6125 61.2101 27.101 60.5599 26.4534C59.9095 25.8057 59.3949 25.0348 59.046 24.186C58.697 23.3371 58.5207 22.4272 58.5275 21.5094ZM68.5428 21.5094C68.5263 20.9134 68.3345 20.3356 67.9915 19.848C67.6483 19.3606 67.1691 18.9849 66.6138 18.7683C66.0583 18.5516 65.4515 18.5034 64.8688 18.6299C64.2862 18.7564 63.7538 19.0516 63.3381 19.479C62.9225 19.9063 62.6419 20.4467 62.5318 21.0327C62.4216 21.6185 62.4864 22.2239 62.7184 22.7731C62.9504 23.3224 63.3391 23.7909 63.8359 24.1204C64.3328 24.4498 64.9158 24.6255 65.5119 24.6255C65.9201 24.6364 66.3263 24.5626 66.7047 24.4087C67.083 24.2548 67.4254 24.0243 67.7101 23.7315C67.9948 23.4387 68.2159 23.0901 68.3592 22.7076C68.5025 22.3252 68.5651 21.9172 68.5428 21.5094Z" fill="#E4E4E4"/>
<path d="M88.2526 14.9204V27.4329C88.2526 31.8602 84.7996 33.7318 81.2948 33.7318C80.0609 33.8242 78.8252 33.5748 77.7234 33.0114C76.6218 32.4478 75.6965 31.5917 75.0492 30.5371L78.4223 28.587C78.6943 29.1368 79.1279 29.5903 79.6647 29.887C80.2017 30.1836 80.8164 30.3092 81.4266 30.2469C81.8166 30.301 82.2138 30.2666 82.5888 30.1464C82.9636 30.0262 83.3068 29.8232 83.5927 29.5526C83.8786 29.2819 84.1 28.9504 84.2406 28.5825C84.381 28.2147 84.4369 27.82 84.4043 27.4276V26.223C83.9413 26.7893 83.3522 27.2394 82.6838 27.5369C82.0155 27.8344 81.2868 27.9711 80.556 27.9361C78.8173 27.8813 77.1682 27.1521 75.9577 25.9027C74.7472 24.6534 74.0703 22.9821 74.0703 21.2426C74.0703 19.5031 74.7472 17.8317 75.9577 16.5825C77.1682 15.3331 78.8173 14.6039 80.556 14.5491C81.2868 14.5141 82.0155 14.6508 82.6838 14.9483C83.3522 15.2458 83.9413 15.6958 84.4043 16.2622V14.9178L88.2526 14.9204ZM84.4056 21.2446C84.4323 20.6075 84.2675 19.977 83.9327 19.4343C83.5979 18.8914 83.1083 18.4613 82.527 18.1993C81.9457 17.937 81.2993 17.8549 80.6709 17.9632C80.0425 18.0716 79.4609 18.3655 79.0009 18.8073C78.541 19.249 78.2238 19.8182 78.09 20.4416C77.9564 21.0651 78.0123 21.7145 78.2508 22.3059C78.4892 22.8973 78.8992 23.4039 79.4279 23.7604C79.9566 24.1169 80.58 24.3069 81.2176 24.3061C81.633 24.3352 82.0498 24.2769 82.4413 24.135C82.8328 23.9931 83.1902 23.7706 83.4905 23.4823C83.7908 23.1939 84.0275 22.8458 84.1851 22.4603C84.3427 22.0749 84.4179 21.6608 84.4056 21.2446Z" fill="#E4E4E4"/>
<path d="M90.4924 21.5094C90.4869 20.1269 90.8917 18.7737 91.6559 17.6215C92.42 16.4692 93.5088 15.5697 94.7846 15.0368C96.0603 14.5038 97.4654 14.3615 98.8221 14.6279C100.179 14.8943 101.426 15.5572 102.405 16.5329C103.385 17.5084 104.053 18.7529 104.325 20.1085C104.597 21.4641 104.46 22.8699 103.932 24.1478C103.404 25.4255 102.509 26.5181 101.36 27.2867C100.211 28.0554 98.8594 28.4658 97.4767 28.4658C96.5591 28.4763 95.6483 28.3037 94.7981 27.9581C93.9478 27.6125 93.175 27.101 92.5247 26.4534C91.8743 25.8057 91.3597 25.0348 91.0108 24.186C90.6618 23.3371 90.4856 22.4272 90.4924 21.5094ZM100.508 21.5094C100.491 20.9134 100.299 20.3356 99.9563 19.848C99.6132 19.3606 99.134 18.9849 98.5786 18.7683C98.0232 18.5516 97.4162 18.5034 96.8337 18.6299C96.2511 18.7564 95.7186 19.0516 95.3029 19.479C94.8873 19.9063 94.6067 20.4467 94.4965 21.0327C94.3863 21.6185 94.4512 22.2239 94.6833 22.7731C94.9153 23.3224 95.304 23.7909 95.8007 24.1204C96.2976 24.4498 96.8805 24.6255 97.4767 24.6255C97.885 24.6364 98.2911 24.5626 98.6694 24.4087C99.0479 24.2548 99.3902 24.0243 99.6749 23.7315C99.9597 23.4387 100.181 23.0901 100.324 22.7076C100.467 22.3252 100.53 21.9172 100.508 21.5094Z" fill="#E4E4E4"/>
<path d="M106.305 11.3889C106.305 10.9197 106.444 10.4611 106.704 10.0711C106.965 9.68098 107.336 9.37694 107.769 9.19741C108.202 9.01787 108.679 8.9709 109.14 9.06243C109.6 9.15395 110.022 9.37987 110.354 9.71161C110.686 10.0433 110.912 10.466 111.003 10.9261C111.095 11.3863 111.048 11.8632 110.868 12.2966C110.689 12.7301 110.385 13.1005 109.995 13.3612C109.605 13.6218 109.146 13.7609 108.677 13.7609C108.05 13.7547 107.45 13.5028 107.006 13.0593C106.563 12.6158 106.311 12.0161 106.305 11.3889ZM106.704 14.9203H110.659V28.0984H106.699L106.704 14.9203Z" fill="#E4E4E4"/>
<path d="M127.728 21.5093C127.774 22.3802 127.647 23.2516 127.355 24.0733C127.063 24.895 126.611 25.6508 126.026 26.2973C125.44 26.9437 124.733 27.4681 123.944 27.8403C123.155 28.2124 122.301 28.4249 121.43 28.4657C120.697 28.5056 119.965 28.3821 119.286 28.104C118.607 27.8258 117.998 27.4001 117.504 26.8577V33.3682H113.551V14.9202H117.504V16.1582C117.998 15.6162 118.607 15.1907 119.286 14.9129C119.965 14.635 120.697 14.5116 121.43 14.5515C122.301 14.5921 123.156 14.8046 123.945 15.1768C124.734 15.5489 125.441 16.0734 126.027 16.72C126.612 17.3667 127.064 18.1228 127.356 18.9447C127.648 19.7666 127.775 20.6382 127.728 21.5093ZM123.775 21.5093C123.76 20.8926 123.563 20.2941 123.209 19.7887C122.855 19.2834 122.36 18.8936 121.785 18.6684C121.211 18.443 120.583 18.3921 119.98 18.522C119.377 18.6518 118.825 18.9566 118.395 19.3983C117.964 19.8401 117.673 20.3989 117.559 21.0052C117.444 21.6114 117.511 22.2378 117.75 22.8063C117.99 23.3748 118.392 23.8599 118.906 24.2011C119.42 24.5421 120.023 24.724 120.64 24.7239C121.064 24.7428 121.487 24.6719 121.881 24.5159C122.275 24.36 122.632 24.1224 122.928 23.8189C123.224 23.5153 123.452 23.1527 123.598 22.7547C123.744 22.3567 123.805 21.9322 123.775 21.5093Z" fill="#E4E4E4"/>
<path d="M139.928 24.1435C139.928 27.1744 137.294 28.4656 134.448 28.4656C133.298 28.5697 132.143 28.3267 131.133 27.7675C130.123 27.2084 129.304 26.3591 128.781 25.3295L132.206 23.3794C132.345 23.8553 132.642 24.2694 133.049 24.5523C133.456 24.8353 133.949 24.9701 134.442 24.9342C135.39 24.9342 135.865 24.644 135.865 24.1182C135.865 22.6673 129.382 23.4327 129.382 18.8736C129.382 15.9997 131.807 14.5515 134.548 14.5515C135.578 14.5189 136.598 14.7632 137.501 15.2591C138.405 15.7551 139.16 16.4842 139.686 17.3708L136.313 19.1891C136.165 18.8439 135.919 18.5499 135.605 18.3437C135.29 18.1375 134.923 18.0283 134.548 18.0297C133.862 18.0297 133.44 18.2959 133.44 18.7671C133.445 20.2699 139.928 19.2676 139.928 24.1435Z" fill="#E4E4E4"/>
<path d="M154.37 14.9202V28.0982H150.417V26.8589C149.96 27.4058 149.381 27.8366 148.726 28.1162C148.071 28.3957 147.361 28.5159 146.65 28.4669C143.988 28.4669 141.725 26.5701 141.725 23.0094V14.9202H145.678V22.4303C145.645 22.7442 145.681 23.0615 145.783 23.3601C145.884 23.6588 146.051 23.9317 146.269 24.1597C146.487 24.3877 146.752 24.5654 147.046 24.6806C147.339 24.7957 147.655 24.8455 147.97 24.8263C149.42 24.8263 150.421 23.9837 150.421 22.1122V14.9242L154.37 14.9202Z" fill="#E4E4E4"/>
<path d="M177.039 20.0069V28.0975H173.086V20.349C173.086 19.0312 172.453 18.1886 171.189 18.1886C169.871 18.1886 169.132 19.1111 169.132 20.6658V28.0975H165.18V20.349C165.18 19.0312 164.548 18.1886 163.282 18.1886C161.964 18.1886 161.227 19.1111 161.227 20.6658V28.0975H157.273V14.9194H161.227V16.1307C161.637 15.5934 162.175 15.1671 162.791 14.8912C163.409 14.6151 164.085 14.4981 164.758 14.5507C165.435 14.5175 166.108 14.6604 166.714 14.9651C167.318 15.2696 167.833 15.7259 168.21 16.2891C168.648 15.6998 169.228 15.2313 169.896 14.9273C170.565 14.6232 171.299 14.4937 172.032 14.5507C175.057 14.552 177.039 16.7124 177.039 20.0069Z" fill="#E4E4E4"/>
<path d="M180.383 14.8392C182.003 14.8392 183.317 13.5257 183.317 11.9055C183.317 10.2852 182.003 8.97168 180.383 8.97168C178.763 8.97168 177.449 10.2852 177.449 11.9055C177.449 13.5257 178.763 14.8392 180.383 14.8392Z" fill="#E4E4E4"/>
</svg>
