<svg width="205" height="46" viewBox="0 0 205 46" fill="none" xmlns="http://www.w3.org/2000/svg">
<path d="M60.0464 30.205C60.0464 31.1929 59.8436 31.952 59.438 32.4824C59.0429 33.0128 58.3825 33.278 57.457 33.278C56.5834 33.278 55.9647 33.0128 55.6006 32.4824C55.2471 31.952 55.0703 31.1929 55.0703 30.205V13.7168C55.0703 12.7289 55.2471 11.9697 55.6006 11.4394C55.9647 10.909 56.5834 10.6438 57.457 10.6438C58.3825 10.6438 59.0429 10.909 59.438 11.4394C59.8436 11.9697 60.0464 12.7289 60.0464 13.7168V30.205Z" fill="#E4E4E4"/>
<path d="M61.5564 25.4157C61.5564 24.3133 61.7332 23.2734 62.0868 22.2958C62.4508 21.3079 62.9915 20.4448 63.7091 19.7064C64.4371 18.968 65.3418 18.3805 66.4234 17.9437C67.5153 17.5069 68.7943 17.2886 70.2607 17.2886C71.6646 17.2886 72.9073 17.4913 73.9889 17.8969C75.0704 18.3025 75.9804 18.8693 76.7186 19.5973C77.457 20.3147 78.0186 21.1726 78.4034 22.171C78.7881 23.1589 78.9806 24.2405 78.9806 25.4157C78.9806 26.5076 78.7985 27.5423 78.4345 28.5199C78.0706 29.4869 77.5246 30.3398 76.7966 31.0781C76.0688 31.806 75.1588 32.3884 74.0669 32.8252C72.9748 33.2516 71.7062 33.4647 70.2607 33.4647C68.836 33.4647 67.5777 33.262 66.4856 32.8564C65.4041 32.4404 64.4943 31.8736 63.7559 31.156C63.0279 30.4282 62.4767 29.5754 62.1024 28.5979C61.7384 27.6099 61.5564 26.5491 61.5564 25.4157ZM66.7509 25.4157C66.7509 26.102 66.8132 26.7572 66.9381 27.3811C67.0628 27.9946 67.2605 28.5354 67.5308 29.0035C67.8116 29.4713 68.1756 29.8458 68.6228 30.1265C69.07 30.3969 69.6159 30.5321 70.2607 30.5321C70.8534 30.5321 71.3682 30.4074 71.8049 30.1577C72.2522 29.9082 72.6161 29.5597 72.897 29.1126C73.1881 28.6655 73.4065 28.1298 73.552 27.506C73.6976 26.8715 73.7704 26.1748 73.7704 25.4157C73.7704 24.7292 73.7028 24.0793 73.5677 23.4658C73.4429 22.8419 73.2401 22.2958 72.9593 21.8278C72.6785 21.3495 72.3146 20.9751 71.8673 20.7047C71.4306 20.424 70.895 20.2836 70.2607 20.2836C69.6263 20.2836 69.0856 20.4187 68.6383 20.6892C68.1912 20.9595 67.8273 21.3286 67.5464 21.7967C67.2657 22.2647 67.0628 22.8106 66.9381 23.4346C66.8132 24.0585 66.7509 24.7189 66.7509 25.4157Z" fill="#E4E4E4"/>
<path d="M91.7848 30.2673C91.5039 30.7872 91.1607 31.2292 90.7551 31.5932C90.3601 31.9572 89.918 32.2588 89.4294 32.498C88.951 32.7267 88.4362 32.8983 87.885 33.0127C87.3442 33.1167 86.7879 33.1687 86.2159 33.1687C85.2591 33.1687 84.3856 32.9972 83.5952 32.6539C82.8049 32.3107 82.1238 31.8167 81.5518 31.1721C80.9902 30.5169 80.5535 29.7161 80.2415 28.7698C79.9294 27.8234 79.7734 26.7418 79.7734 25.5252C79.7734 24.3812 79.9191 23.3101 80.2103 22.3118C80.5014 21.3134 80.9226 20.4451 81.4738 19.7068C82.0354 18.9684 82.7217 18.386 83.5329 17.9597C84.344 17.5333 85.2696 17.3201 86.3095 17.3201C87.495 17.3201 88.5454 17.5489 89.4605 18.0064C90.386 18.464 91.1816 19.2128 91.8472 20.2527V19.8472C91.8472 19.0984 92.0499 18.5368 92.4555 18.1624C92.8715 17.7777 93.4435 17.5852 94.1715 17.5852C94.6082 17.5852 94.9773 17.658 95.2789 17.8037C95.5804 17.9389 95.8196 18.1468 95.9964 18.4277C96.1733 18.698 96.298 19.036 96.3709 19.4416C96.4541 19.8367 96.4956 20.2891 96.4956 20.7987V31.2501C96.4956 32.5188 96.3345 33.6522 96.0121 34.6505C95.7001 35.6489 95.2113 36.4913 94.5458 37.1777C93.8802 37.864 93.0275 38.3839 91.9875 38.7376C90.9476 39.1015 89.7101 39.2835 88.275 39.2835C87.2663 39.2835 86.3719 39.2368 85.5919 39.143C84.8224 39.06 84.1568 38.9299 83.5952 38.7532C83.0337 38.5555 82.6074 38.3372 82.3161 38.098C82.0354 37.8588 81.895 37.5468 81.895 37.1621C81.895 36.9436 81.9261 36.7357 81.9885 36.5381C82.051 36.3405 82.1446 36.1637 82.2693 36.0077C82.4045 35.8621 82.5761 35.7426 82.7842 35.6489C83.0025 35.5658 83.2676 35.5241 83.5796 35.5241C83.9124 35.5241 84.2452 35.5449 84.578 35.5866C84.9211 35.6281 85.2748 35.6698 85.6387 35.7113C86.013 35.7633 86.4031 35.8101 86.8086 35.8517C87.2246 35.8933 87.6718 35.9142 88.1502 35.9142C88.7221 35.9142 89.2317 35.8569 89.6789 35.7426C90.1261 35.6281 90.5056 35.4254 90.8176 35.1341C91.1296 34.843 91.3688 34.453 91.5352 33.9642C91.7016 33.4858 91.7848 32.8723 91.7848 32.1235V30.2673ZM91.7848 25.416C91.7848 24.6568 91.7275 23.9653 91.6132 23.3414C91.5092 22.7173 91.3271 22.187 91.0672 21.7502C90.8072 21.303 90.4588 20.9599 90.0221 20.7207C89.5852 20.4711 89.0393 20.3464 88.3842 20.3464C87.7394 20.3464 87.2039 20.4763 86.7775 20.7362C86.3615 20.9962 86.0287 21.3551 85.7792 21.8126C85.5296 22.2702 85.3528 22.8057 85.2487 23.4194C85.1551 24.0329 85.1084 24.6881 85.1084 25.3848C85.1084 26.9758 85.3892 28.1719 85.9508 28.9725C86.5122 29.7733 87.3286 30.1737 88.3997 30.1737C88.8989 30.1633 89.3514 30.0696 89.7568 29.8929C90.1728 29.7057 90.5317 29.4198 90.8332 29.035C91.1348 28.6501 91.3688 28.1613 91.5352 27.5686C91.7016 26.9758 91.7848 26.2584 91.7848 25.416Z" fill="#E4E4E4"/>
<path d="M97.9277 25.4157C97.9277 24.3133 98.1045 23.2734 98.4581 22.2958C98.8221 21.3079 99.3628 20.4448 100.08 19.7064C100.808 18.968 101.713 18.3805 102.795 17.9437C103.887 17.5069 105.166 17.2886 106.632 17.2886C108.036 17.2886 109.279 17.4913 110.36 17.8969C111.442 18.3025 112.352 18.8693 113.09 19.5973C113.828 20.3147 114.39 21.1726 114.775 22.171C115.159 23.1589 115.352 24.2405 115.352 25.4157C115.352 26.5076 115.17 27.5423 114.806 28.5199C114.442 29.4869 113.896 30.3398 113.168 31.0781C112.44 31.806 111.53 32.3884 110.438 32.8252C109.346 33.2516 108.077 33.4647 106.632 33.4647C105.207 33.4647 103.949 33.262 102.857 32.8564C101.775 32.4404 100.866 31.8736 100.127 31.156C99.3993 30.4282 98.8481 29.5754 98.4736 28.5979C98.1097 27.6099 97.9277 26.5491 97.9277 25.4157ZM103.122 25.4157C103.122 26.102 103.185 26.7572 103.309 27.3811C103.434 27.9946 103.632 28.5354 103.902 29.0035C104.183 29.4713 104.547 29.8458 104.994 30.1265C105.441 30.3969 105.987 30.5321 106.632 30.5321C107.225 30.5321 107.74 30.4074 108.176 30.1577C108.623 29.9082 108.987 29.5597 109.268 29.1126C109.559 28.6655 109.778 28.1298 109.923 27.506C110.069 26.8715 110.142 26.1748 110.142 25.4157C110.142 24.7292 110.074 24.0793 109.939 23.4658C109.814 22.8419 109.611 22.2958 109.331 21.8278C109.05 21.3495 108.686 20.9751 108.239 20.7047C107.802 20.424 107.266 20.2836 106.632 20.2836C105.998 20.2836 105.457 20.4187 105.01 20.6892C104.563 20.9595 104.198 21.3286 103.918 21.7967C103.637 22.2647 103.434 22.8106 103.309 23.4346C103.185 24.0585 103.122 24.7189 103.122 25.4157Z" fill="#E4E4E4"/>
<path d="M122.042 12.0319C122.042 12.3751 121.964 12.6819 121.808 12.9523C121.652 13.2122 121.449 13.4306 121.2 13.6075C120.95 13.7842 120.659 13.9194 120.326 14.0129C120.004 14.0961 119.671 14.1378 119.328 14.1378C118.964 14.1378 118.615 14.0909 118.283 13.9974C117.96 13.9038 117.674 13.7687 117.425 13.5918C117.175 13.4046 116.977 13.181 116.832 12.9211C116.686 12.6611 116.614 12.3647 116.614 12.0319C116.614 11.7303 116.681 11.4548 116.816 11.2052C116.962 10.9452 117.154 10.7216 117.393 10.5344C117.633 10.3472 117.919 10.2016 118.251 10.0976C118.584 9.99364 118.948 9.94165 119.343 9.94165C119.687 9.94165 120.019 9.98845 120.342 10.082C120.674 10.1756 120.966 10.3108 121.215 10.4876C121.465 10.6644 121.662 10.8828 121.808 11.1428C121.964 11.4028 122.042 11.6991 122.042 12.0319ZM121.808 30.2048C121.808 31.1927 121.605 31.9518 121.2 32.4822C120.804 33.0126 120.144 33.2778 119.219 33.2778C118.345 33.2778 117.726 33.0126 117.362 32.4822C117.009 31.9518 116.832 31.1927 116.832 30.2048V20.6581C116.832 19.6702 117.009 18.911 117.362 18.3807C117.726 17.8504 118.345 17.5851 119.219 17.5851C120.144 17.5851 120.804 17.8504 121.2 18.3807C121.605 18.911 121.808 19.6702 121.808 20.6581V30.2048Z" fill="#E4E4E4"/>
<path d="M128.982 25.3848C128.982 26.0816 129.034 26.7315 129.138 27.3347C129.252 27.9378 129.439 28.4682 129.699 28.9258C129.97 29.3729 130.323 29.7265 130.76 29.9864C131.207 30.2465 131.758 30.3764 132.414 30.3764C133.017 30.3764 133.521 30.2517 133.927 30.0021C134.342 29.7422 134.675 29.3885 134.925 28.9414C135.174 28.4837 135.351 27.9482 135.455 27.3347C135.57 26.7211 135.627 26.0555 135.627 25.338C135.627 24.7661 135.586 24.1837 135.502 23.591C135.419 22.9877 135.264 22.4418 135.035 21.953C134.806 21.4642 134.489 21.0638 134.083 20.7518C133.677 20.4399 133.147 20.2839 132.492 20.2839C131.837 20.2839 131.28 20.3879 130.823 20.5959C130.375 20.8039 130.011 21.1211 129.731 21.5474C129.46 21.9738 129.268 22.5094 129.154 23.1541C129.039 23.7885 128.982 24.5321 128.982 25.3848ZM128.966 20.6582C129.226 20.1072 129.559 19.6236 129.965 19.2076C130.37 18.7916 130.817 18.4433 131.306 18.1624C131.795 17.8817 132.305 17.6736 132.835 17.5385C133.376 17.3929 133.911 17.3201 134.441 17.3201C135.398 17.3201 136.262 17.5333 137.031 17.9597C137.801 18.386 138.456 18.9684 138.996 19.7068C139.547 20.4347 139.969 21.2978 140.261 22.2962C140.551 23.2841 140.697 24.3449 140.697 25.4783C140.697 26.6535 140.54 27.7298 140.229 28.7074C139.928 29.6849 139.495 30.5273 138.933 31.2344C138.382 31.9312 137.717 32.4771 136.937 32.8723C136.167 33.2675 135.31 33.465 134.364 33.465C133.199 33.465 132.159 33.1947 131.244 32.6539C130.329 32.1132 129.569 31.354 128.966 30.3764V35.9922C128.966 36.98 128.763 37.7393 128.358 38.2696C127.963 38.7999 127.302 39.0652 126.377 39.0652C125.503 39.0652 124.884 38.7999 124.521 38.2696C124.167 37.7393 123.99 36.98 123.99 35.9922V20.6582C123.99 19.6703 124.167 18.9112 124.521 18.3808C124.884 17.8505 125.503 17.5852 126.377 17.5852C127.302 17.5852 127.963 17.8505 128.358 18.3808C128.763 18.9112 128.966 19.6703 128.966 20.6582Z" fill="#E4E4E4"/>
<path d="M146.184 21.7655C146.184 22.171 146.362 22.4882 146.714 22.717C147.068 22.9354 147.557 23.1174 148.181 23.263C148.774 23.3981 149.382 23.5282 150.006 23.6529C150.63 23.7778 151.239 23.9234 151.831 24.0898C152.423 24.2457 152.98 24.4329 153.5 24.6512C154.019 24.8697 154.477 25.1452 154.873 25.478C155.268 25.8004 155.58 26.1956 155.808 26.6635C156.037 27.1211 156.152 27.6723 156.152 28.317C156.152 29.1282 155.985 29.851 155.653 30.4853C155.32 31.1093 154.847 31.6396 154.234 32.0765C153.631 32.5132 152.908 32.8512 152.065 33.0904C151.223 33.3296 150.292 33.4543 149.273 33.4647C148.306 33.4647 147.375 33.4024 146.48 33.2775C145.587 33.1632 144.791 32.9811 144.093 32.7315C143.408 32.4819 142.857 32.1752 142.44 31.8112C142.025 31.4369 141.817 31.0001 141.817 30.501C141.817 30.0641 141.957 29.7261 142.238 29.4869C142.519 29.2479 142.877 29.1282 143.315 29.1282C143.481 29.1282 143.678 29.1593 143.907 29.2218C144.136 29.2842 144.385 29.3622 144.655 29.4558C144.925 29.5493 145.211 29.6533 145.514 29.7678C145.825 29.8717 146.147 29.9653 146.48 30.0485C146.897 30.163 147.323 30.2566 147.759 30.3294C148.206 30.3917 148.664 30.423 149.133 30.423C149.423 30.423 149.709 30.3969 149.99 30.345C150.271 30.2825 150.521 30.1941 150.74 30.0798C150.969 29.9549 151.155 29.7989 151.301 29.6118C151.446 29.4246 151.534 29.1958 151.566 28.9255C151.597 28.863 151.623 28.8006 151.643 28.7382C151.665 28.6759 151.675 28.6031 151.675 28.5199C151.675 28.2286 151.54 27.9686 151.269 27.7398C151.01 27.5111 150.64 27.329 150.162 27.1939C149.361 27.0068 148.596 26.8352 147.868 26.6792C147.142 26.5232 146.465 26.3568 145.841 26.18C145.227 26.0033 144.666 25.8004 144.156 25.5716C143.657 25.3429 143.231 25.062 142.877 24.7292C142.535 24.3965 142.263 23.9961 142.066 23.5282C141.878 23.0602 141.785 22.4934 141.785 21.8278C141.785 21.1103 141.946 20.4707 142.268 19.9091C142.601 19.3372 143.075 18.8589 143.689 18.4741C144.302 18.0892 145.045 17.7981 145.92 17.6006C146.793 17.3925 147.781 17.2886 148.883 17.2886C150.858 17.2886 152.361 17.5278 153.391 18.006C154.431 18.4741 154.951 19.0876 154.951 19.8468C154.951 20.2732 154.81 20.6008 154.529 20.8295C154.248 21.0479 153.91 21.1571 153.516 21.1571C153.307 21.1571 153.089 21.1207 152.86 21.0479C152.642 20.9647 152.377 20.8763 152.065 20.7828C151.753 20.6788 151.379 20.5904 150.942 20.5176C150.516 20.4344 149.985 20.3927 149.351 20.3927C148.872 20.3927 148.435 20.4135 148.04 20.4552C147.655 20.4967 147.323 20.5695 147.042 20.6735C146.772 20.7776 146.559 20.9179 146.403 21.0948C146.256 21.2715 146.184 21.495 146.184 21.7655Z" fill="#E4E4E4"/>
<path d="M162.484 27.4906C162.484 27.9794 162.546 28.4057 162.671 28.7698C162.806 29.1337 162.988 29.4405 163.217 29.6901C163.446 29.9293 163.711 30.1113 164.012 30.236C164.324 30.3505 164.657 30.4077 165.01 30.4077C165.427 30.4077 165.827 30.3453 166.212 30.2204C166.597 30.0957 166.935 29.9032 167.226 29.6433C167.527 29.3833 167.767 29.0557 167.944 28.6605C168.119 28.2654 168.209 27.8026 168.209 27.2723V20.6582C168.209 19.6703 168.386 18.9111 168.738 18.3808C169.103 17.8505 169.722 17.5852 170.595 17.5852C171.52 17.5852 172.181 17.8505 172.576 18.3808C172.982 18.9111 173.184 19.6703 173.184 20.6582V30.2048C173.184 31.1928 172.982 31.9519 172.576 32.4823C172.181 33.0127 171.52 33.2779 170.595 33.2779C169.722 33.2779 169.103 33.0127 168.738 32.4823C168.386 31.9519 168.209 31.1928 168.209 30.2048C167.99 30.6833 167.704 31.12 167.35 31.5152C167.007 31.9104 166.602 32.2536 166.133 32.5447C165.676 32.8255 165.167 33.0439 164.605 33.1999C164.054 33.3559 163.455 33.4339 162.811 33.4339C162.115 33.4339 161.444 33.3142 160.798 33.0751C160.165 32.8255 159.603 32.4615 159.114 31.9831C158.626 31.4944 158.236 30.8912 157.944 30.1737C157.653 29.4561 157.508 28.619 157.508 27.6622V20.6582C157.508 19.6703 157.685 18.9111 158.038 18.3808C158.402 17.8505 159.02 17.5852 159.895 17.5852C160.82 17.5852 161.48 17.8505 161.875 18.3808C162.281 18.9111 162.484 19.6703 162.484 20.6582V27.4906Z" fill="#E4E4E4"/>
<path d="M175.443 20.6582C175.443 19.6703 175.62 18.9112 175.974 18.3808C176.338 17.8505 176.957 17.5852 177.83 17.5852C178.757 17.5852 179.417 17.8505 179.812 18.3808C180.217 18.9112 180.42 19.6703 180.42 20.6582C180.628 20.1591 180.909 19.7068 181.263 19.3012C181.626 18.8852 182.038 18.5317 182.494 18.2404C182.963 17.9493 183.467 17.7257 184.008 17.5697C184.548 17.4033 185.11 17.3201 185.693 17.3201C186.233 17.3201 186.763 17.3929 187.284 17.5385C187.813 17.6736 188.303 17.8972 188.751 18.2093C189.207 18.5108 189.608 18.8956 189.951 19.3636C190.295 19.8315 190.56 20.3931 190.747 21.0483C191.069 20.3516 191.449 19.764 191.885 19.2856C192.322 18.8072 192.796 18.4224 193.304 18.1313C193.814 17.84 194.345 17.6321 194.896 17.5072C195.458 17.3825 196.018 17.3201 196.58 17.3201C197.246 17.3201 197.881 17.4397 198.484 17.6788C199.097 17.918 199.632 18.2821 200.09 18.7709C200.559 19.2491 200.928 19.8576 201.198 20.5959C201.479 21.3238 201.618 22.1766 201.618 23.1541V30.2049C201.618 31.1928 201.416 31.952 201.01 32.4823C200.616 33.0127 199.955 33.2779 199.029 33.2779C198.156 33.2779 197.537 33.0127 197.174 32.4823C196.82 31.952 196.643 31.1928 196.643 30.2049V23.3725C196.643 22.9045 196.58 22.4885 196.456 22.1246C196.331 21.7502 196.154 21.4383 195.925 21.1887C195.707 20.9287 195.447 20.7362 195.145 20.6115C194.844 20.4763 194.521 20.4087 194.179 20.4087C193.752 20.4087 193.347 20.4763 192.962 20.6115C192.577 20.7466 192.239 20.9547 191.948 21.2354C191.667 21.5163 191.438 21.875 191.261 22.3118C191.095 22.7485 191.012 23.2737 191.012 23.8873V30.2049C191.012 31.1928 190.808 31.952 190.404 32.4823C190.008 33.0127 189.348 33.2779 188.422 33.2779C187.549 33.2779 186.93 33.0127 186.566 32.4823C186.212 31.952 186.035 31.1928 186.035 30.2049V23.6688C186.035 22.5978 185.811 21.7866 185.366 21.2354C184.928 20.6843 184.33 20.4087 183.571 20.4087C183.124 20.4087 182.707 20.4815 182.323 20.6271C181.938 20.7727 181.605 20.9858 181.324 21.2667C181.043 21.5474 180.82 21.8958 180.653 22.3118C180.498 22.7277 180.42 23.2061 180.42 23.7468V30.2049C180.42 31.1928 180.217 31.952 179.812 32.4823C179.417 33.0127 178.757 33.2779 177.83 33.2779C176.957 33.2779 176.338 33.0127 175.974 32.4823C175.62 31.952 175.443 31.1928 175.443 30.2049V20.6582Z" fill="#E4E4E4"/>
<path d="M22.6293 30.6155C18.2184 30.6155 14.6426 27.0397 14.6426 22.6288C14.6426 18.2179 18.2184 14.6421 22.6293 14.6421C27.0402 14.6421 30.616 18.2179 30.616 22.6288C30.616 27.0397 27.0402 30.6155 22.6293 30.6155Z" fill="#E4E4E4"/>
<path d="M7.15546 25.3574C4.84099 25.7655 3.25454 28.0013 4.14299 30.1771C5.38338 33.2147 7.36225 35.9211 9.92773 38.036C13.5962 41.0599 18.2231 42.6758 22.9765 42.5928C27.7299 42.5099 32.2978 40.7335 35.8585 37.5833C38.3485 35.3803 40.2318 32.6064 41.3655 29.5274C42.1775 27.3219 40.5139 25.1428 38.1865 24.8158C35.8593 24.4887 33.7698 26.1827 32.6202 28.2326C31.9971 29.3437 31.1882 30.3517 30.2191 31.2091C28.1761 33.0166 25.5553 34.0357 22.8281 34.0834C20.1008 34.1309 17.446 33.2039 15.3413 31.4688C14.3428 30.6458 13.4993 29.6666 12.8377 28.5779C11.6174 26.5694 9.46994 24.9493 7.15546 25.3574Z" fill="#E4E4E4"/>
<path d="M42.4414 25.1238C42.5434 24.3063 42.5958 23.4736 42.5958 22.6286C42.5958 11.6013 33.6565 2.66187 22.6291 2.66187C11.6018 2.66187 2.66235 11.6013 2.66235 22.6286C2.66235 23.7131 2.74881 24.7773 2.91521 25.8149C3.83232 24.5594 5.2637 23.6631 6.80979 23.3905C8.48259 23.0956 10.0029 23.5013 11.2883 24.2596C11.2124 23.7269 11.1731 23.1823 11.1731 22.6286C11.1731 16.3017 16.3022 11.1726 22.6291 11.1726C28.956 11.1726 34.0851 16.3017 34.0851 22.6286C34.0851 23.0458 34.0627 23.4578 34.0193 23.8633C35.2776 23.0603 36.7831 22.6014 38.4655 22.838C40.0197 23.0564 41.481 23.9017 42.4414 25.1238Z" fill="#E4E4E4"/>
</svg>
