<svg width="176" height="47" viewBox="0 0 176 47" fill="none" xmlns="http://www.w3.org/2000/svg">
<path d="M40.625 16.3064C41.1042 16.3064 41.2639 16.4794 41.2639 16.9453V27.4878H46.6816C47.1474 27.4878 47.3205 27.6608 47.3205 28.1267V29.0585C47.3205 29.5244 47.1474 29.6974 46.6816 29.6974H39.5468C39.0809 29.6974 38.8945 29.5244 38.8945 29.0585V16.9453C38.8945 16.4794 39.0809 16.3064 39.5468 16.3064H40.625Z" fill="#E4E4E4"/>
<path d="M52.0466 20.952C52.0466 17.8771 53.9901 16.0269 57.3711 16.0269C60.7521 16.0269 62.6956 17.8771 62.6956 20.952V25.0518C62.6956 28.1267 60.7388 29.9769 57.3711 29.9769C54.0034 29.9769 52.0466 28.1267 52.0466 25.0518V20.952ZM60.4593 20.952C60.4593 19.2215 59.3811 18.2898 57.4377 18.2898C55.4942 18.2898 54.4293 19.2348 54.4293 20.952V25.0784C54.4293 26.8222 55.4942 27.7407 57.4377 27.7407C59.3811 27.7407 60.4593 26.7823 60.4593 25.0784V20.952Z" fill="#E4E4E4"/>
<path d="M78.5488 22.3632C79.068 22.3632 79.1878 22.5363 79.1878 23.0022V25.5313C79.2019 26.127 79.0825 26.7184 78.8384 27.2619C78.5941 27.8055 78.2315 28.2875 77.7768 28.6727C76.6476 29.5719 75.2238 30.0179 73.7834 29.924C70.3359 29.924 68.459 28.0737 68.459 24.9988V20.8724C68.459 17.8374 70.4024 15.9739 73.7834 15.9739C76.4457 15.9739 78.1761 17.0255 78.9082 19.1286C78.9492 19.2077 78.9712 19.2951 78.9724 19.3841C78.9736 19.4731 78.954 19.5612 78.9153 19.6412C78.8766 19.7214 78.8196 19.7914 78.749 19.8457C78.6785 19.8999 78.5962 19.937 78.5089 19.9539L77.4706 20.3133C77.0181 20.473 76.8317 20.3799 76.672 19.914C76.4514 19.3455 76.0477 18.8665 75.5245 18.5532C75.0014 18.2398 74.3888 18.1097 73.7834 18.1835C71.8267 18.1835 70.7618 19.1286 70.7618 20.8458V25.0787C70.7618 26.8225 71.84 27.7409 73.7834 27.7409C75.7269 27.7409 76.9249 26.8491 76.9249 25.5446V24.5596H74.0364C73.5572 24.5596 73.3841 24.3732 73.3841 23.9073V23.0022C73.3841 22.5363 73.5572 22.3632 74.0364 22.3632H78.5488Z" fill="#E4E4E4"/>
<path d="M84.6855 20.952C84.6855 17.8771 86.629 16.0269 90.01 16.0269C93.391 16.0269 95.3345 17.8771 95.3345 20.952V25.0518C95.3345 28.1267 93.3777 29.9769 90.01 29.9769C86.6423 29.9769 84.6855 28.1267 84.6855 25.0518V20.952ZM93.0849 20.952C93.0849 19.2215 92.0067 18.2898 90.0766 18.2898C88.1464 18.2898 87.0549 19.2348 87.0549 20.952V25.0784C87.0549 26.8222 88.1331 27.7407 90.0766 27.7407C92.02 27.7407 93.0849 26.7823 93.0849 25.0784V20.952Z" fill="#E4E4E4"/>
<path d="M101.604 16.6924C101.604 16.3996 101.697 16.3064 101.99 16.3064H102.602C102.895 16.3064 102.961 16.3996 102.961 16.6924V29.3114C102.961 29.6042 102.961 29.6974 102.602 29.6974H101.99C101.697 29.6974 101.604 29.6042 101.604 29.3114V16.6924Z" fill="#E4E4E4"/>
<path d="M115.087 16.3064C116.196 16.3064 117.259 16.7467 118.043 17.5306C118.827 18.3144 119.267 19.3775 119.267 20.4861C119.267 21.5947 118.827 22.6578 118.043 23.4416C117.259 24.2255 116.196 24.6658 115.087 24.6658H111.094V29.3114C111.094 29.6042 111.028 29.6974 110.748 29.6974H110.122C109.843 29.6974 109.736 29.6042 109.736 29.3114V16.6924C109.736 16.3996 109.843 16.3064 110.122 16.3064H115.087ZM114.968 23.348C115.349 23.348 115.726 23.2729 116.078 23.1272C116.43 22.9813 116.75 22.7675 117.02 22.4981C117.289 22.2287 117.503 21.9087 117.649 21.5567C117.794 21.2046 117.869 20.8273 117.869 20.4462C117.869 20.0651 117.794 19.6877 117.649 19.3356C117.503 18.9837 117.289 18.6637 117.02 18.3943C116.75 18.1248 116.43 17.9111 116.078 17.7652C115.726 17.6194 115.349 17.5443 114.968 17.5443H110.974V23.348H114.968Z" fill="#E4E4E4"/>
<path d="M129.664 16.0402C130.691 15.9268 131.728 16.1479 132.62 16.6706C133.512 17.1935 134.212 17.99 134.615 18.9421C134.722 19.155 134.615 19.3281 134.402 19.4346L133.817 19.7008C133.577 19.794 133.484 19.7807 133.337 19.5278C133.036 18.8212 132.517 18.2289 131.857 17.8364C131.196 17.444 130.428 17.2718 129.664 17.3447C127.414 17.3447 126.189 18.2366 126.189 19.8339C126.176 20.322 126.34 20.7986 126.651 21.1753C126.962 21.552 127.398 21.8037 127.88 21.8838C128.596 22.1173 129.338 22.2604 130.09 22.3098C130.999 22.3582 131.896 22.5422 132.752 22.8555C133.408 23.0631 133.972 23.4898 134.35 24.0643C134.728 24.6388 134.898 25.326 134.828 26.0103C134.828 28.4995 133.018 30.0036 129.69 30.0036C128.599 30.1285 127.497 29.8756 126.57 29.287C125.642 28.6985 124.944 27.8097 124.592 26.769C124.568 26.7216 124.556 26.6696 124.555 26.6166C124.554 26.5636 124.564 26.5112 124.586 26.4629C124.608 26.4145 124.64 26.3716 124.68 26.3371C124.72 26.3025 124.767 26.2773 124.818 26.2632L125.404 26.0502C125.45 26.0313 125.5 26.0223 125.55 26.0236C125.599 26.0249 125.648 26.0366 125.693 26.0579C125.738 26.0792 125.779 26.1096 125.811 26.1473C125.844 26.1849 125.868 26.2289 125.883 26.2765C126.181 27.0285 126.711 27.6661 127.395 28.0969C128.079 28.5277 128.883 28.7294 129.69 28.6725C132.206 28.6725 133.444 27.794 133.444 26.0103C133.468 25.5415 133.324 25.0794 133.038 24.7065C132.753 24.3336 132.345 24.0739 131.887 23.9737C131.198 23.7683 130.488 23.6432 129.77 23.601L128.332 23.4146C127.883 23.3192 127.438 23.1991 127.001 23.0552C126.57 22.9249 126.168 22.7124 125.817 22.4296C125.464 22.1099 125.185 21.7164 125.001 21.277C124.817 20.8376 124.732 20.3632 124.752 19.8872C124.845 17.5577 126.589 16.0402 129.664 16.0402Z" fill="#E4E4E4"/>
<path d="M142.004 25.145C142.06 26.0864 142.474 26.9706 143.161 27.6172C143.847 28.2637 144.755 28.6236 145.698 28.6236C146.64 28.6236 147.548 28.2637 148.235 27.6172C148.922 26.9706 149.334 26.0864 149.392 25.145V16.6924C149.392 16.3996 149.485 16.3064 149.778 16.3064H150.39C150.683 16.3064 150.776 16.3996 150.776 16.6924V25.1317C150.776 28.1533 148.992 29.977 145.704 29.977C142.417 29.977 140.633 28.1533 140.633 25.1317V16.6924C140.633 16.3996 140.726 16.3064 141.006 16.3064H141.631C141.911 16.3064 142.004 16.3996 142.004 16.6924V25.145Z" fill="#E4E4E4"/>
<path d="M169.144 16.3067C169.437 16.3067 169.53 16.3999 169.53 16.6927V29.3117C169.53 29.6046 169.437 29.6977 169.144 29.6977H168.585C168.306 29.6977 168.213 29.6046 168.213 29.3117V21.6312C168.213 20.5137 168.288 19.3974 168.439 18.2901H168.359C167.944 19.3027 167.458 20.2856 166.908 21.2318L164.046 26.2768C164.012 26.3644 163.95 26.4392 163.872 26.4915C163.793 26.5437 163.701 26.5709 163.607 26.5696H163.234C163.138 26.5701 163.045 26.5426 162.964 26.4907C162.884 26.4386 162.82 26.3644 162.782 26.2768L159.88 21.1786C159.365 20.2459 158.92 19.2759 158.549 18.2768H158.469C158.605 19.3942 158.676 20.5188 158.682 21.6445V29.3117C158.682 29.6046 158.589 29.6977 158.296 29.6977H157.777C157.484 29.6977 157.391 29.6046 157.391 29.3117V16.6927C157.391 16.3999 157.484 16.3067 157.777 16.3067H158.256C158.365 16.2966 158.475 16.3204 158.57 16.3753C158.666 16.4301 158.742 16.5132 158.788 16.6129L163.447 24.8924L168.079 16.6927C168.226 16.4132 168.306 16.3733 168.599 16.3733L169.144 16.3067Z" fill="#E4E4E4"/>
<path d="M16.9449 27.6742V37.2982C16.9449 37.6672 16.7983 38.021 16.5374 38.2817C16.2766 38.5426 15.9228 38.6892 15.5538 38.6892C15.185 38.6892 14.8312 38.5426 14.5703 38.2817C14.3094 38.021 14.1628 37.6672 14.1628 37.2982V27.6875C14.5502 27.9704 15.0145 28.1282 15.4939 28.1401C16.0165 28.155 16.5286 27.9906 16.9449 27.6742ZM28.7918 24.8922C28.4388 24.8922 28.1001 25.0325 27.8506 25.2821C27.601 25.5316 27.4607 25.8703 27.4607 26.2233V27.9005C27.4607 28.2695 27.6072 28.6233 27.8681 28.8841C28.1289 29.145 28.4827 29.2915 28.8517 29.2915C29.2207 29.2915 29.5745 29.145 29.8353 28.8841C30.0962 28.6233 30.2427 28.2695 30.2427 27.9005V26.2898C30.2531 26.099 30.2222 25.9081 30.1522 25.7302C30.0822 25.5524 29.9748 25.3916 29.837 25.259C29.6993 25.1264 29.5347 25.025 29.3545 24.9617C29.1741 24.8984 28.9821 24.8747 28.7918 24.8922ZM11.1412 31.3215C10.6622 31.3071 10.1985 31.1495 9.81008 30.8689V40.5195C9.81008 40.8902 9.95733 41.2457 10.2195 41.5078C10.4816 41.7699 10.8371 41.9171 11.2078 41.9171C11.5784 41.9171 11.9339 41.7699 12.1961 41.5078C12.4582 41.2457 12.6054 40.8902 12.6054 40.5195V30.9354C12.1707 31.2164 11.6579 31.3517 11.1412 31.3215ZM24.4524 22.0037C24.272 21.9946 24.0918 22.0224 23.9224 22.0852C23.7533 22.1481 23.5986 22.2447 23.4677 22.3692C23.337 22.4938 23.2331 22.6435 23.162 22.8095C23.091 22.9755 23.0544 23.1543 23.0547 23.3348V30.7491C23.0547 31.1198 23.2019 31.4753 23.464 31.7374C23.7262 31.9995 24.0816 32.1468 24.4524 32.1468C24.8231 32.1468 25.1786 31.9995 25.4407 31.7374C25.7028 31.4753 25.85 31.1198 25.85 30.7491V23.4279C25.8607 23.2359 25.8295 23.0438 25.7587 22.8649C25.6879 22.686 25.5793 22.5245 25.44 22.3917C25.3008 22.2588 25.1346 22.1577 24.9526 22.0954C24.7706 22.0329 24.5772 22.0107 24.3858 22.0303L24.4524 22.0037ZM20.033 24.8522C19.5316 24.8488 19.0436 24.6908 18.6354 24.3997V34.0769C18.6354 34.4476 18.7826 34.8031 19.0447 35.0652C19.3069 35.3273 19.6623 35.4745 20.033 35.4745C20.4038 35.4745 20.7592 35.3273 21.0214 35.0652C21.2835 34.8031 21.4307 34.4476 21.4307 34.0769V24.413C21.0085 24.7275 20.4929 24.8915 19.9665 24.8789L20.033 24.8522ZM8.11956 32.2666V5.23159C8.11606 4.90205 7.98268 4.58721 7.74841 4.35542C7.51413 4.12364 7.19787 3.99364 6.86831 3.99365H6.57547C6.24591 3.99364 5.92965 4.12364 5.69537 4.35542C5.4611 4.58721 5.32772 4.90205 5.32422 5.23159V32.2666C5.32422 32.5984 5.45605 32.9167 5.6907 33.1513C5.92535 33.386 6.24362 33.5178 6.57547 33.5178H6.86831C7.20017 33.5178 7.51843 33.386 7.75308 33.1513C7.98774 32.9167 8.11956 32.5984 8.11956 32.2666ZM11.2876 30.2965H10.9948C10.6629 30.2965 10.3447 30.1647 10.11 29.93C9.87536 29.6954 9.74352 29.3771 9.74352 29.0453V8.45289C9.74704 8.12336 9.8804 7.8085 10.1147 7.57672C10.349 7.34494 10.6652 7.21494 10.9948 7.21495H11.2876C11.6172 7.21494 11.9334 7.34494 12.1677 7.57672C12.402 7.8085 12.5354 8.12336 12.5389 8.45289V29.0719C12.5389 29.4037 12.407 29.722 12.1724 29.9567C11.9377 30.1913 11.6195 30.3231 11.2876 30.3231V30.2965ZM15.6936 27.1284H15.3875C15.0592 27.1284 14.7443 26.998 14.5121 26.7659C14.28 26.5337 14.1495 26.2189 14.1495 25.8905V11.6476C14.1478 11.4839 14.1785 11.3215 14.2399 11.1697C14.3013 11.018 14.3922 10.88 14.5073 10.7636C14.6225 10.6472 14.7596 10.5549 14.9106 10.4918C15.0617 10.4288 15.2237 10.3963 15.3875 10.3963H15.6936C16.0232 10.3998 16.338 10.5332 16.5698 10.7675C16.8016 11.0018 16.9315 11.318 16.9315 11.6476V25.8905C16.9315 26.2189 16.8011 26.5337 16.569 26.7659C16.3368 26.998 16.022 27.1284 15.6936 27.1284ZM20.0996 23.8672H19.8201C19.4905 23.8672 19.1742 23.7373 18.9399 23.5054C18.7057 23.2737 18.5723 22.9589 18.5688 22.6293V14.962C18.5579 14.7911 18.5821 14.6198 18.6402 14.4586C18.6981 14.2976 18.7886 14.1499 18.9059 14.0252C19.0231 13.9003 19.1648 13.801 19.3221 13.7332C19.4793 13.6654 19.6488 13.6305 19.8201 13.6309H20.1129C20.4448 13.6309 20.763 13.7627 20.9977 13.9974C21.2324 14.2321 21.3642 14.5503 21.3642 14.8822V22.6027C21.3659 22.7681 21.3349 22.9322 21.2727 23.0856C21.2107 23.2389 21.1188 23.3784 21.0024 23.4961C20.886 23.6136 20.7476 23.7069 20.5948 23.7707C20.4421 23.8345 20.2784 23.8672 20.1129 23.8672H20.0996ZM24.5189 21.0053H24.2261C23.8942 21.0053 23.5759 20.8735 23.3413 20.6389C23.1066 20.4042 22.9748 20.0859 22.9748 19.7541V17.7707C22.9783 17.4411 23.1117 17.1263 23.3459 16.8946C23.5802 16.6627 23.8965 16.5328 24.2261 16.5328H24.5189C24.8485 16.5328 25.1648 16.6627 25.399 16.8946C25.6333 17.1263 25.7667 17.4411 25.7702 17.7707V19.7541C25.7702 20.0837 25.6402 20.3999 25.4084 20.6342C25.1766 20.8685 24.8618 21.0019 24.5322 21.0053H24.5189Z" fill="#E4E4E4"/>
</svg>
