<svg width="170" height="52" viewBox="0 0 170 52" fill="none" xmlns="http://www.w3.org/2000/svg">
<path d="M25.9566 2.66235C22.8976 2.66235 19.8684 3.26495 17.0422 4.43553C14.2159 5.60625 11.6481 7.32206 9.48488 9.48512C7.32181 11.6483 5.606 14.2162 4.43529 17.0424C3.26471 19.8686 2.66211 22.8978 2.66211 25.9569C2.66211 29.0159 3.26471 32.0451 4.43529 34.8714C5.606 37.6976 7.32181 40.2654 9.48488 42.4286C11.6481 44.5917 14.2159 46.3075 17.0422 47.4782C19.8684 48.6488 22.8976 49.2514 25.9566 49.2514V37.6041C24.4271 37.6041 22.9125 37.3029 21.4994 36.7175C20.0863 36.1322 18.8023 35.2743 17.7208 34.1928C16.6392 33.1112 15.7813 31.8272 15.196 30.4141C14.6106 29.001 14.3094 27.4865 14.3094 25.9569C14.3094 24.4273 14.6106 22.9128 15.196 21.4996C15.7813 20.0865 16.6392 18.8025 17.7208 17.721C18.8023 16.6395 20.0863 15.7816 21.4994 15.1963C22.9125 14.6108 24.4271 14.3096 25.9566 14.3096V2.66235Z" fill="#E4E4E4"/>
<path d="M25.9562 33.7212C30.2447 33.7212 33.721 30.2449 33.721 25.9564C33.721 21.668 30.2447 18.1917 25.9562 18.1917C21.6677 18.1917 18.1914 21.668 18.1914 25.9564C18.1914 30.2449 21.6677 33.7212 25.9562 33.7212Z" fill="#E4E4E4"/>
<path d="M2.66211 25.9568C2.66211 29.0158 3.26471 32.045 4.43529 34.8713C5.606 37.6975 7.32181 40.2653 9.48488 42.4285C11.6481 44.5916 14.2159 46.3074 17.0422 47.4781C19.8684 48.6487 22.8976 49.2513 25.9566 49.2513C29.0157 49.2513 32.0449 48.6487 34.8711 47.4781C37.6973 46.3074 40.2652 44.5916 42.4284 42.4285C44.5915 40.2653 46.3073 37.6975 47.478 34.8713C48.6486 32.045 49.2512 29.0158 49.2512 25.9568H37.6039C37.6039 27.4864 37.3027 29.0009 36.7172 30.414C36.132 31.8271 35.274 33.1111 34.1925 34.1927C33.111 35.2742 31.827 36.1321 30.4139 36.7174C29.0008 37.3028 27.4862 37.6041 25.9566 37.6041C24.4271 37.6041 22.9125 37.3028 21.4994 36.7174C20.0863 36.1321 18.8023 35.2742 17.7208 34.1927C16.6392 33.1111 15.7813 31.8271 15.196 30.414C14.6106 29.0009 14.3094 27.4864 14.3094 25.9568H2.66211Z" fill="#E4E4E4"/>
<path d="M33.7211 25.9566C33.7211 23.8972 32.903 21.9222 31.4469 20.466C29.9907 19.0098 28.0157 18.1917 25.9563 18.1917C23.897 18.1917 21.922 19.0098 20.4658 20.466C19.0095 21.9222 18.1914 23.8972 18.1914 25.9566H25.9563H33.7211Z" fill="#E4E4E4"/>
<path d="M61.4166 17.2046H58.5234V33.2778H61.4166V17.2046Z" fill="#E4E4E4"/>
<path d="M63.3066 27.5838C63.3066 31.3037 65.8784 33.5998 69.2767 33.5998C72.675 33.5998 75.2468 31.3037 75.2468 27.5838C75.2468 23.864 72.675 21.5679 69.2767 21.5679C65.8784 21.5679 63.3066 23.864 63.3066 27.5838ZM66.1998 27.5838C66.1998 25.3795 67.4857 24.0937 69.2767 24.0937C71.0677 24.0937 72.3536 25.3795 72.3536 27.5838C72.3536 29.7882 71.0677 31.074 69.2767 31.074C67.4857 31.074 66.1998 29.7882 66.1998 27.5838Z" fill="#E4E4E4"/>
<path d="M85.586 21.8893V23.4277H85.3564C84.6676 22.4404 83.5654 21.5679 81.5907 21.5679C78.8812 21.5679 76.4473 23.864 76.4473 27.4002C76.4473 30.9363 78.8812 33.2324 81.5907 33.2324C83.5654 33.2324 84.6676 32.3369 85.3105 31.4414H85.5401V32.5436C85.5401 34.7479 84.2543 35.7582 82.3714 35.7582C80.4885 35.7582 79.5241 34.7479 79.1337 33.439L76.5391 34.5642C77.1361 36.2863 78.8812 38.1922 82.4173 38.1922C86.0453 38.1922 88.4333 36.2863 88.4333 32.6124V21.8893H85.586ZM82.4632 30.7526C80.6722 30.7526 79.3404 29.4667 79.3404 27.4002C79.3404 25.3336 80.6722 24.0477 82.4632 24.0477C84.2543 24.0477 85.586 25.3336 85.586 27.4002C85.586 29.4667 84.2543 30.7526 82.4632 30.7526Z" fill="#E4E4E4"/>
<path d="M90.3047 27.5838C90.3047 31.3037 92.8764 33.5998 96.2747 33.5998C99.6731 33.5998 102.245 31.3037 102.245 27.5838C102.245 23.864 99.6731 21.5679 96.2747 21.5679C92.8764 21.5679 90.3047 23.864 90.3047 27.5838ZM93.1979 27.5838C93.1979 25.3795 94.4837 24.0937 96.2747 24.0937C98.0658 24.0937 99.3516 25.3795 99.3516 27.5838C99.3516 29.7882 98.0658 31.074 96.2747 31.074C94.4837 31.074 93.1979 29.7882 93.1979 27.5838Z" fill="#E4E4E4"/>
<path d="M104.516 18.5826C104.516 19.7537 105.411 20.5573 106.56 20.5573C107.708 20.5573 108.603 19.7537 108.603 18.5826C108.603 17.4116 107.708 16.6079 106.56 16.6079C105.411 16.6079 104.516 17.4116 104.516 18.5826ZM108.006 21.8891H105.113V33.2781H108.006V21.8891Z" fill="#E4E4E4"/>
<path d="M110.584 37.8707H113.478V31.8088H113.707C114.35 32.7273 115.452 33.5998 117.427 33.5998C120.136 33.5998 122.571 31.3037 122.571 27.5838C122.571 23.864 120.136 21.5679 117.427 21.5679C115.452 21.5679 114.35 22.4404 113.662 23.4278H113.431V21.8893H110.584V37.8707ZM116.554 31.12C114.764 31.12 113.431 29.8341 113.431 27.5838C113.431 25.3336 114.764 24.0477 116.554 24.0477C118.346 24.0477 119.677 25.3336 119.677 27.5838C119.677 29.8341 118.346 31.12 116.554 31.12Z" fill="#E4E4E4"/>
<path d="M124.258 25.0811C124.258 27.3313 126.14 28.158 128.528 28.6172L129.126 28.7319C130.549 29.0075 131.192 29.352 131.192 30.0867C131.192 30.8215 130.549 31.3955 129.217 31.3955C127.885 31.3955 126.807 30.8444 126.507 29.1912L123.844 29.88C124.235 32.268 126.232 33.5998 129.217 33.5998C132.11 33.5998 133.994 32.2452 133.994 29.8571C133.994 27.469 132.065 26.8262 129.493 26.321L128.895 26.2061C127.701 25.9765 127.058 25.6551 127.058 24.8974C127.058 24.2085 127.656 23.7722 128.758 23.7722C129.86 23.7722 130.64 24.2314 130.916 25.4714L133.534 24.6678C132.983 22.8308 131.307 21.5679 128.758 21.5679C126.048 21.5679 124.258 22.8308 124.258 25.0811Z" fill="#E4E4E4"/>
<path d="M146.99 33.2779V21.8889H144.098V27.7671C144.098 29.8796 143.065 31.1195 141.296 31.1195C139.734 31.1195 138.863 30.27 138.863 28.5478V21.8889H135.969V28.6856C135.969 31.51 137.738 33.4616 140.401 33.4616C142.49 33.4616 143.455 32.5432 143.914 31.5788H144.143V33.2779H146.99Z" fill="#E4E4E4"/>
<path d="M149.557 21.8893V33.2783H152.45V26.4816C152.45 24.9202 153.185 24.0477 154.516 24.0477C155.665 24.0477 156.353 24.6906 156.353 25.9305V33.2783H159.247V26.4816C159.247 24.9202 159.982 24.0477 161.313 24.0477C162.462 24.0477 163.15 24.6906 163.15 25.9305V33.2783H166.044V25.7928C166.044 23.0373 164.344 21.7056 162.232 21.7056C160.372 21.7056 159.523 22.5322 158.972 23.4966H158.741C158.213 22.4174 157.272 21.7056 155.619 21.7056C153.965 21.7056 153.069 22.4403 152.634 23.3129H152.404V21.8893H149.557Z" fill="#E4E4E4"/>
</svg>
