<svg width="217" height="56" viewBox="0 0 217 56" fill="none" xmlns="http://www.w3.org/2000/svg">
<path d="M40.2125 23.5859C44.3896 23.5859 45.3293 25.4002 45.3293 27.6631C45.3293 30.0618 44.1926 31.7803 40.2298 31.7803C36.2924 31.7803 35.1543 30.1616 35.1543 27.6631C35.1543 25.2046 36.3949 23.5859 40.2125 23.5859Z" fill="#E4E4E4"/>
<path d="M83.8649 23.5859C88.0419 23.5859 88.9817 25.4002 88.9817 27.6631C88.9817 30.0618 87.8436 31.7803 83.8822 31.7803C79.9461 31.7803 78.8066 30.1616 78.8066 27.6631C78.8066 25.2046 80.0472 23.5859 83.8649 23.5859Z" fill="#E4E4E4"/>
<path fill-rule="evenodd" clip-rule="evenodd" d="M3.23022 51.2475V4.05542H214.316V51.2475H3.23022ZM103.833 48.5852H211.654V6.71765H103.833V48.5852ZM40.2329 35.7972C47.6485 35.7972 50.766 32.5985 50.766 27.6029C50.766 22.526 47.2545 19.5083 40.2329 19.5083C33.3191 19.5083 29.6798 22.7856 29.6798 27.6029C29.6798 33.0391 33.4975 35.7972 40.2329 35.7972ZM14.4505 19.8677V35.5576H29.4176V31.3792H19.8655V19.8677H14.4505ZM67.5168 35.5576L67.377 34.0375C65.5655 35.3303 63.3606 35.9524 61.1407 35.7972C57.8036 35.7972 55.0243 34.7975 53.4655 32.7796C52.4374 31.3063 51.9182 29.5378 51.9867 27.7426C51.9282 25.9852 52.4653 24.2595 53.5108 22.8455C55.0882 20.8874 57.9474 19.5882 62.2043 19.5882C67.1015 19.5882 69.9793 21.087 71.2173 23.6055C71.483 24.1987 71.6391 24.8349 71.6778 25.4837H66.4971C66.3666 25.0894 66.1236 24.742 65.7983 24.4841C64.7663 23.7999 63.534 23.4835 62.3001 23.5856C61.5764 23.4978 60.8422 23.5647 60.1463 23.7818C59.4504 23.9989 58.8084 24.3612 58.2629 24.8448C57.6434 25.6927 57.3525 26.7366 57.4442 27.7826C57.3723 28.7805 57.6398 29.7735 58.203 30.6005C58.7534 31.1134 59.4078 31.5018 60.1215 31.7398C60.8354 31.9777 61.5919 32.0596 62.3401 31.9796C63.826 32.1004 65.3013 31.6421 66.4572 30.7004C66.7055 30.3899 66.8766 30.025 66.9564 29.6355H61.3817V26.2638H71.8136V35.5576H67.5168ZM83.8855 35.7972C91.2998 35.7972 94.4186 32.5985 94.4186 27.6029C94.4186 22.526 90.9017 19.5083 83.8855 19.5083C76.9717 19.5083 73.3324 22.7856 73.3324 27.6029C73.3324 33.0391 77.1501 35.7972 83.8855 35.7972Z" fill="#E4E4E4"/>
<path d="M112.955 35.4975V19.8076H116.815V35.4975H112.955Z" fill="#E4E4E4"/>
<path d="M136.637 28.9423C135.659 30.2215 133.975 30.8059 131.601 30.8205C131.101 30.8205 124.465 30.8005 124.465 30.8005V35.498H120.688V19.8082H131.603C132.477 19.7157 133.362 19.8084 134.198 20.0804C135.036 20.3525 135.805 20.7976 136.459 21.3869C137.321 22.5106 137.74 23.9117 137.638 25.3243C137.726 26.6091 137.373 27.8855 136.637 28.9423ZM133.539 23.8268C133.14 23.2278 132.279 22.895 130.821 22.895H124.445V27.6711H130.78C132.339 27.6711 133.16 27.3516 133.539 26.7313C133.764 26.2943 133.862 25.8022 133.819 25.3123C133.852 24.8015 133.756 24.2904 133.539 23.8268Z" fill="#E4E4E4"/>
<path d="M148.77 35.7377C141.654 35.7377 139.477 33.0754 139.477 30.4412H143.514C143.514 31.7403 145.292 32.72 148.95 32.72C152.587 32.72 153.546 32.0798 153.546 31.0402C153.546 29.8808 152.828 29.5214 149.449 29.142C148.784 29.0821 146.972 28.8625 146.292 28.7626C141.5 28.2222 139.655 26.8032 139.655 24.2648C139.655 21.5866 142.354 19.5686 148.21 19.5686C154.566 19.5686 157.005 22.0671 157.005 24.6654H153.011C153.011 23.3463 151.513 22.5862 147.974 22.5862C144.336 22.5862 143.558 23.0854 143.558 24.0651C143.558 25.0847 144.356 25.4042 148.217 25.8635C149.097 25.9846 151.055 26.2042 151.594 26.2628C155.672 26.6821 157.511 28.161 157.511 30.7793C157.504 33.8981 154.706 35.7377 148.77 35.7377Z" fill="#E4E4E4"/>
<path d="M168.879 35.7171C163.664 35.7171 160.266 33.6579 160.266 29.3278V19.8076H164.082V29.381C164.082 31.3604 165.702 32.6782 169.039 32.6782C172.057 32.6782 173.856 31.4402 173.856 29.381V19.8076H177.634V29.6832C177.634 33.6193 174.475 35.7171 168.879 35.7171Z" fill="#E4E4E4"/>
<path d="M198.319 35.4975V25.0243L193.421 35.4975H189.705L184.948 25.0243V35.4975H181.354V19.8076H186.223L191.619 31.7597L197.135 19.8076H201.927V35.4975H198.319Z" fill="#E4E4E4"/>
</svg>
